<svg xmlns="http://www.w3.org/2000/svg" viewBox="0 0 154.71 154.67"><defs><style>.cls-1{fill:#fff;}</style></defs><g id="Camada_2" data-name="Camada 2"><g id="Layer_1" data-name="Layer 1"><path class="cls-1" d="M82.79,154.67H9.06c-2.91-.94-5.58-2.28-7.21-5a41.18,41.18,0,0,1-1.85-4V9.06a9.8,9.8,0,0,0,.36-1A11.15,11.15,0,0,1,11,0H143.74a11,11,0,0,1,11,11q0,66.36,0,132.73a11.07,11.07,0,0,1-7.4,10.36l-1.66.62h-39c0-.65.07-1.3.07-2q0-27.93,0-55.88v-2h20.21c1-7.77,2-15.43,3-23.29H108.14c-.71,0-1.43.14-1.42-1,.1-5.59,0-11.18.27-16.75.26-5.18,3.31-8.14,8.46-8.44,4.11-.24,8.25-.18,12.37-.25.89,0,1.78,0,2.79,0V27.39c0-3,0-3.11-3-3.34-7-.53-14-1.18-20.94-.17-8.51,1.23-15.35,5.22-19.78,12.8a30.2,30.2,0,0,0-4.07,14.51c-.19,6.09-.08,12.18-.1,18.27,0,2.07,0,2.07-2.14,2.07H62.64V94.9H82.72v57.81C82.72,153.37,82.77,154,82.79,154.67Z"/></g></g></svg>