<svg xmlns="http://www.w3.org/2000/svg" viewBox="0 0 154.71 154.67"><defs><style>.cls-1{fill:#fff;}</style></defs><g id="Camada_2" data-name="Camada 2"><g id="Layer_1" data-name="Layer 1"><path class="cls-1" d="M145.64,154.67H9.06c-2.91-.94-5.58-2.28-7.21-5a41.18,41.18,0,0,1-1.85-4V9.06a9.8,9.8,0,0,0,.36-1A11.15,11.15,0,0,1,11,0H143.74a11,11,0,0,1,11,11q0,66.36,0,132.73a11.07,11.07,0,0,1-7.4,10.36ZM33.24,77.37H33c0,3.72-.11,7.45,0,11.17A99.74,99.74,0,0,0,33.89,101c1.57,9.54,7,16,16.32,19a42.26,42.26,0,0,0,13.13,1.53c11.92-.07,23.87.11,35.77-.53,9-.49,15.84-5.11,19.8-13.47a27.25,27.25,0,0,0,2.51-11.24q.28-15.63.24-31.26a71.44,71.44,0,0,0-.84-11.42c-1.59-9.47-6.89-16-16.18-19a41.69,41.69,0,0,0-13.13-1.56c-12,.06-24,.11-35.92.47a22.21,22.21,0,0,0-13.05,4.94c-6.56,5.11-9,12.19-9.26,20.12C33.06,64.88,33.24,71.13,33.24,77.37Z"/><path class="cls-1" d="M114,77.3c-.24,7-.33,13.9-.76,20.83-.51,8.53-6.61,14.76-15.18,15.08-11.16.42-22.34.42-33.51.43a51.11,51.11,0,0,1-10.78-.94c-7.43-1.62-12.06-7-12.32-14.6C41.08,87,41,75.87,41,64.75a52.64,52.64,0,0,1,1-11.08c1.58-7.32,7-12,14.52-12.21C67.76,41.08,79,41,90.2,41A50,50,0,0,1,101,42c7.34,1.59,11.83,7,12.27,14.48C113.67,63.41,113.78,70.36,114,77.3Zm-13.94,0a22.73,22.73,0,1,0-22.7,22.7A22.59,22.59,0,0,0,100.08,77.35Zm1-18.43a5.3,5.3,0,1,0-5.27-5.27A5.33,5.33,0,0,0,101.05,58.92Z"/><path class="cls-1" d="M62.55,77.31A14.81,14.81,0,1,1,77.26,92.14,14.73,14.73,0,0,1,62.55,77.31Z"/></g></g></svg>