<svg xmlns="http://www.w3.org/2000/svg" viewBox="0 0 38.99 15.8"><defs><style>.cls-1{fill:#fff;}</style></defs><g id="Camada_2" data-name="Camada 2"><g id="Layer_1" data-name="Layer 1"><g id="USP"><path class="cls-1" d="M26.36,11V9.79l-3.7-3.68-2.79-2.8-.37.37-.37.38.37.37,3.16,3.16,2.63,2.63v1.89a2.64,2.64,0,0,1-2.63,2.65H16.34a2.65,2.65,0,0,1-2.64-2.63h-1A2.63,2.63,0,0,1,10,14.75H3.69a2.64,2.64,0,0,1-2.64-2.64V1.05H6.33v11h1v-11h5.27V0H0V12.11A3.69,3.69,0,0,0,3.69,15.8H10a3.66,3.66,0,0,0,2.89-1.41,2.26,2.26,0,0,0,.26-.37,3.86,3.86,0,0,0,1.59,1.43,3.62,3.62,0,0,0,1.58.35h6.32a3.69,3.69,0,0,0,3.69-3.69Z"/><path class="cls-1" d="M35.31,0H29a3.66,3.66,0,0,0-2.62,1.11,3.23,3.23,0,0,0-.54.68A3.68,3.68,0,0,0,22.67,0H16.34a3.45,3.45,0,0,0-1.58.39,3.88,3.88,0,0,0-1.85,2,3.55,3.55,0,0,0-.26,1.34V6l.26.26,1.85,1.84L16.34,9.7l2.79,2.8.37-.38.37-.37-.37-.37L16.34,8.21,14.76,6.63l-1.06-1V3.69a2.63,2.63,0,0,1,1.06-2.11,2.68,2.68,0,0,1,1.58-.53h6.33a2.64,2.64,0,0,1,2.62,2.64h1.06a.22.22,0,0,1,0-.08A2.64,2.64,0,0,1,29,1.05h6.33a2.64,2.64,0,0,1,2.62,2.64V9.48H32.68V3.69H31.62V14.75H26.35V15.8h6.33V10.54H39V3.69A3.7,3.7,0,0,0,35.31,0"/></g></g></g></svg>