<svg xmlns="http://www.w3.org/2000/svg" viewBox="0 0 866.16 141.1"><defs><style>.cls-1,.cls-2{fill:#fff;}.cls-1{fill-rule:evenodd;}</style></defs><g id="Camada_2" data-name="Camada 2"><g id="Camada_1-2" data-name="Camada 1"><path class="cls-1" d="M79.16,43.35a11,11,0,0,0-6.91,2.73c-1.35,1.32-2.08,2.68-1.8,5.58l3.37,34.93a15.37,15.37,0,0,0,2.36,7.48c1,1.29,4.55,2.49,7.52,2.76v2.62h-29V97.27c2.82-.72,5.78-1.44,6.66-2.67A9.13,9.13,0,0,0,63.42,89L60,51.62,39.86,99.45h-3L17.29,51.62,13.54,87.26l0,1.53a7.51,7.51,0,0,0,1.9,5.38c1.29,1.5,3.34,2.23,6.2,2.71v2.57H0V96.88c3-.42,5.91-1.36,6.9-2.89a13.75,13.75,0,0,0,2.56-7.06l3.88-40.24c-2.21-2.24-5.08-2.46-8.4-2.94v-3H24L42,84.35,60.39,40.7H79.12Z"/><path class="cls-1" d="M127.65,86.85a24.05,24.05,0,0,0,.61,6.62,2.38,2.38,0,0,0,2.45,1.84c1.33,0,2.57-1.74,3.69-5.23H137a11.18,11.18,0,0,1-2.92,8,10.09,10.09,0,0,1-7.67,3.08q-6.61,0-9.22-7.7a26.37,26.37,0,0,1-7.14,6,16.09,16.09,0,0,1-7.45,1.7,15.51,15.51,0,0,1-11-4.24A13.52,13.52,0,0,1,87.1,86.69q0-9.39,10.44-13.16t19.66-7v-4q0-6-3.15-9.62t-9-3.62a14.37,14.37,0,0,0-8.82,2.93A16.14,16.14,0,0,0,90.63,61l-2.77-.76a21.47,21.47,0,0,1,7.22-12.17A19.57,19.57,0,0,1,108,43.43a20.78,20.78,0,0,1,13.74,4.94c4,3.27,5.93,8.31,5.93,15.08ZM117.2,69.92q-6.92,2.61-13.67,5.23-5.84,3.07-5.84,10.16a10.65,10.65,0,0,0,2.46,7.08A7.43,7.43,0,0,0,106,95.31a13.17,13.17,0,0,0,6.29-1.84,11.27,11.27,0,0,0,4.92-5.08Z"/><path class="cls-1" d="M604.43,86.68a24.43,24.43,0,0,0,.61,6.61,2.42,2.42,0,0,0,2.46,1.85c1.33,0,2.57-1.75,3.69-5.23h2.6a11.19,11.19,0,0,1-2.91,8A10.06,10.06,0,0,1,603.2,101q-6.6,0-9.21-7.7a25.87,25.87,0,0,1-7.14,6,16.07,16.07,0,0,1-7.46,1.7,15.48,15.48,0,0,1-11-4.23,13.52,13.52,0,0,1-4.53-10.24q0-9.39,10.44-13.16t19.66-7v-4c0-4-1-7.21-3.15-9.62s-5.1-3.62-9-3.62A14.41,14.41,0,0,0,573,52a16,16,0,0,0-5.6,8.77L564.66,60a21.39,21.39,0,0,1,7.22-12.16,19.48,19.48,0,0,1,12.9-4.62,20.88,20.88,0,0,1,13.74,4.92q5.91,4.93,5.91,15.1ZM594,69.74q-6.9,2.63-13.67,5.23-5.84,3.09-5.84,10.16a10.69,10.69,0,0,0,2.46,7.08,7.41,7.41,0,0,0,5.84,2.93,13.32,13.32,0,0,0,6.3-1.85A11.2,11.2,0,0,0,594,88.21Z"/><path class="cls-1" d="M161,89.17c0,3,.61,5,1.81,6.08s3.57,1.61,7.09,1.61v2.62h-28.2V96.86c3.92,0,6.41-.65,7.47-1.93s1.57-4.12,1.57-8.52V56.74c0-3.8-.67-6.23-2-7.31s-4.35-1.62-9-1.62V45.2l18.7-1.69H161V55.34a112.49,112.49,0,0,1,11.62-9.29q3.91-2.53,6.64-2.54,5,0,9.79,4.3L185,57.5a64.59,64.59,0,0,0-6.86-3.3,16,16,0,0,0-5.81-1.46,10.15,10.15,0,0,0-5,1.3A31.48,31.48,0,0,0,161,59.35Z"/><path class="cls-1" d="M210.84,88.84c0,3.93,0,6,.69,6.88,1.32,1.07,2.4,1.11,5.64,1.11v2.65H190V96.77a21.92,21.92,0,0,0,7.82-1c1.59-.64,2.15-2.94,2.15-6.61v-33c0-3.54.15-7-.85-7.25a48.35,48.35,0,0,0-6.83-1V45.3l16.08-1.79,2.44,0Z"/><path class="cls-1" d="M546.63,89.16c0,3.94,0,6,.7,6.89,1.3,1,2.38,1.1,5.63,1.1V99.8H525.82V97.09a21.65,21.65,0,0,0,7.82-1c1.58-.64,2.15-2.95,2.15-6.61v-33c0-3.55.13-7-.85-7.26a45.89,45.89,0,0,0-6.84-1v-2.6l16.09-1.78,2.44,0Z"/><path class="cls-1" d="M257.1,76.34h-20c-.71,1.59-5.45,12.79-5.49,14.18a6.41,6.41,0,0,0,1.74,4.73A9.22,9.22,0,0,0,238,97l0,2.5H221.33V97c2.79-1.34,2.83-1.19,4-2.51a17.74,17.74,0,0,0,3.38-6.07l17.67-48.83h8.26L271.8,87.69a16.26,16.26,0,0,0,3.12,5.71c1.56,1.64,5.29,3.76,7.95,3.76v2.3H255.62V96.89c3.52,0,6.83-.83,6.83-3.18a7.46,7.46,0,0,0-.43-2.29Zm-10-28.06-9.36,24h18Z"/><path class="cls-1" d="M342.12,87.44c0,3.58.58,6,1.73,7.3s3.59,1.91,7.32,1.91v2.62H322.66V96.65c3.61,0,6.07-.48,7.31-1.45s1.89-2.74,1.89-5.3V61.47q0-6.15-3.55-9.3A12.16,12.16,0,0,0,319.94,49q-7.53,0-15.23,10.6V86.21q0,6.45,1.59,8.45t7.46,2v2.62h-28.2V96.65c3.72,0,6.14-.56,7.24-1.68s1.66-4,1.66-8.76V55.62q0-4.9-1.66-6.44c-1.1-1-3.52-1.54-7.24-1.54V45l16.58-1.69h2.57V54.25Q314.07,43.33,324,43.33a17.88,17.88,0,0,1,12.74,5.07q5.36,5.09,5.36,14.45Z"/><path class="cls-1" d="M512.25,87.89c0,3.58.57,6,1.72,7.29s3.59,1.92,7.32,1.92v2.62H492.78V97.1c3.61,0,6.06-.48,7.31-1.45S502,92.9,502,90.34V61.91q0-6.13-3.54-9.29a12.13,12.13,0,0,0-8.37-3.15q-7.56,0-15.24,10.6V86.65c0,4.31.52,7.12,1.59,8.45s3.53,2,7.46,2v2.62h-28.2V97.1c3.71,0,6.14-.56,7.24-1.68s1.66-4,1.66-8.77V56.07c0-3.28-.56-5.42-1.66-6.45s-3.53-1.53-7.24-1.53V45.47l16.59-1.69h2.56V54.69q9.35-10.9,19.31-10.91a17.87,17.87,0,0,1,12.74,5.07q5.36,5.07,5.37,14.44Z"/><path class="cls-1" d="M370.59,54.6h16.09v3.63H370.59l-.25,28.67c-.06,6.35,2.65,9.75,8.4,9.75,3.23,0,8.43-1.46,11.12-4.37L391.34,94c-4.21,5.07-11.26,7.6-16.65,7.6a13.83,13.83,0,0,1-9.91-3.67c-2.55-2.45-4.69-5.65-4.69-9.61v-30H349.77V55.54c4.48-1.19,12.5-6.6,18-15.78h2.85Z"/><path class="cls-1" d="M421.52,67.33a4.25,4.25,0,1,1-4.24,4.25,4.25,4.25,0,0,1,4.24-4.25"/><path class="cls-1" d="M421.49,45.78c13.06,0,18.43,11.62,18.43,25.83s-5.69,25.83-18.43,25.83-18.42-11.59-18.42-25.83,5.35-25.83,18.42-25.83m0-3c18.31,0,29.85,12.94,29.85,28.81s-11.86,28.81-29.85,28.81S391.66,87.5,391.66,71.63s11.53-28.81,29.83-28.81"/><path class="cls-2" d="M769.28,119.06c-.08,3.3-1.89,5.94-5.52,5.94-2.64,0-4.21-1.9-5-4.21-2.23,2.31-4.87,4.21-8.17,4.21-4.37,0-8.41-3.14-8.41-7.76,0-8.74,13.53-8.41,16.58-10.81v-2.22c0-4.13-2.31-7-6.52-7s-6.85,2.48-7.92,6.27l-1.32-.41a10.76,10.76,0,0,1,10.81-9c6.44,0,10.56,4.29,10.56,10.72v12.55c0,1.65.09,4.45,1.74,4.53,1.32,0,1.73-1.73,1.89-2.8ZM758.8,108.33c-4.2,1.9-11,1.24-11,8.09,0,2.64,2,5.44,4.78,5.44,2.07,0,5.45-1.73,6.27-3.79Z"/><path class="cls-2" d="M802.7,117.74c0,3.79.83,5,4.95,5v1.4H792.06v-1.4c4,0,5-.91,5-3.63V103.79a6.26,6.26,0,0,0-6.52-6.68c-2.88,0-5.44,1.81-8.33,5.69v14.28c0,4.45.58,5.61,5,5.61v1.4H771.76v-1.4c3.88,0,4.87-.33,4.87-5.61V100.66c0-3.55-.91-4.29-4.87-4.29V95l9.08-.9h1.4v5.86c3.47-4,6.85-5.86,10.56-5.86,4.87,0,9.9,3.46,9.9,10.48Z"/><path class="cls-2" d="M825.31,125c-9.16,0-16-6.6-16-15.43s6.84-15.51,16-15.51,16,6.6,16,15.51S834.47,125,825.31,125Zm0-29.29c-6.19,0-9.9,5.44-9.9,13.86,0,7.51,3.14,13.78,9.9,13.78,6.93,0,9.9-6.68,9.9-13.78C835.21,102.23,832.08,95.71,825.31,95.71Z"/><path class="cls-2" d="M862.94,103.05c-.58-4.87-3.8-7.34-7.26-7.34-2.89,0-4.87,1.56-4.87,4,0,7.42,15.35,5.44,15.35,16.34a9.23,9.23,0,0,1-9.24,9c-3.22,0-6-2.15-7.43-2.15a2,2,0,0,0-1.9,2h-1.4v-10h1.4c1.24,6.11,5.78,8.5,9.41,8.5a5,5,0,0,0,5.12-5c0-8.17-15.52-5.95-15.52-15.85,0-4.54,4-8.41,8.91-8.41,3.06,0,4,1.4,6,1.4.74,0,1.32-.41,1.73-1.4h1.4v9Z"/><path class="cls-2" d="M686.64,104.88c8.17,6.22,15.28,6.22,17.05,6.22,5.16,0,17.6-3.56,17.6-19.37,0-8-4.62-23.64-20.44-23.64a23.58,23.58,0,0,0-5.86.72l-.54-3.2c11.91-3.38,12.44-3.56,16-6.22A20.76,20.76,0,0,0,719,42.86c0-8.71-6.05-16.52-14.22-16.52-7.11,0-10,4.79-11.37,7.28L690.72,32c2-4.08,6.4-10.66,17.77-10.66,11.55,0,21.86,8,21.86,20.26,0,14.21-11.37,19.54-16.88,22.21,15.46,3.55,20.79,15.46,20.79,24,0,11.73-9.24,27.36-28.61,27.36-10.31,0-17.77-4.62-21-7.82Z"/><path class="cls-1" d="M767.86,47.74a5.61,5.61,0,1,1-5.6,5.61,5.61,5.61,0,0,1,5.6-5.61"/><path class="cls-1" d="M767.86,26.74c13.44,0,19,12,19,26.59s-5.86,26.59-19,26.59-19-11.93-19-26.59,5.51-26.59,19-26.59m0-3.06c18.85,0,30.72,13.33,30.72,29.67S786.38,83,767.86,83s-30.72-13.32-30.72-29.66S749,23.68,767.86,23.68"/><line class="cls-2" x1="650.38" x2="650.38" y2="141.1"/><rect class="cls-2" x="648.32" width="4.12" height="141.1"/></g></g></svg>