<svg xmlns="http://www.w3.org/2000/svg" viewBox="0 0 45.14 15.78"><defs><style>.cls-1{fill:#fff;}</style></defs><g id="Camada_2" data-name="Camada 2"><g id="Layer_1" data-name="Layer 1"><g id="PRCEU"><path class="cls-1" d="M18,14H17.5v.61a6.18,6.18,0,0,1,.92.13v1H15v-1a6.18,6.18,0,0,1,.92-.13V11.27a6.18,6.18,0,0,1-.92-.13v-1h.92c.51,0,1.48,0,2.18,0,1.52,0,2.44.63,2.44,1.88s-.95,2-2.52,2m0-2.61H17.5v1.37l.41,0c.53,0,.87-.29.87-.72s-.29-.68-.83-.68"/><path class="cls-1" d="M25,15.68l-1.11-2h-.29v.93a1.72,1.72,0,0,1,.46.11v1H21v-1a6.58,6.58,0,0,1,.92-.13V11.27a6.58,6.58,0,0,1-.92-.13v-1h.9c.51,0,1.58,0,2.44,0,1.27,0,2.23.53,2.23,1.67a1.56,1.56,0,0,1-1.07,1.5,4.37,4.37,0,0,1,.31.44l.52.85a2.53,2.53,0,0,1,.56.12v1ZM24,11.32a3.23,3.23,0,0,0-.46,0v1.22H24c.5,0,.8-.26.8-.65s-.27-.61-.78-.61"/><path class="cls-1" d="M30.42,15.76c-2,0-2.9-1.09-2.9-2.7a2.84,2.84,0,0,1,3.09-3,5.08,5.08,0,0,1,1.39.19v2H30.81c0-.23-.07-.43-.11-.64a1.55,1.55,0,0,0-.31,0c-.67,0-1.12.48-1.12,1.36s.47,1.32,1.48,1.32A3.58,3.58,0,0,0,32,14l.11,1.52a5.91,5.91,0,0,1-1.67.23"/><path class="cls-1" d="M32.89,15.68v-1a6.23,6.23,0,0,1,.91-.13V11.27a6.23,6.23,0,0,1-.91-.13v-1h4.88v1.57H36.53a4.34,4.34,0,0,1-.09-.52h-1V12.4h.69a1.38,1.38,0,0,1,.08-.37h1.08v1.75H36.19a1.51,1.51,0,0,1-.08-.38h-.69v1.21h1a4.46,4.46,0,0,1,.11-.55H37.8v1.62Z"/><path class="cls-1" d="M44.47,11.27v2.27c0,1.25-.82,2.24-2.69,2.24s-2.57-.83-2.57-2.07V11.27a3.09,3.09,0,0,1-.67-.12v-1h2.94v1a2.91,2.91,0,0,1-.64.12v2.05c0,.78.33,1.11,1,1.11s1-.39,1-1.13v-2a3,3,0,0,1-.65-.12v-1h2.92v1a2.88,2.88,0,0,1-.67.12"/><path class="cls-1" d="M15.67,0a7.76,7.76,0,0,0-3.92,1.05,7.29,7.29,0,0,0-.74.49,7.82,7.82,0,0,0,0,12.59,7.29,7.29,0,0,0,.74.49,8.56,8.56,0,0,0,1.41-1,5.76,5.76,0,0,1-.74-.39,6.26,6.26,0,0,1,0-10.71,4.73,4.73,0,0,1,.74-.39,6.27,6.27,0,0,1,8.77,5.74H23.5A7.84,7.84,0,0,0,15.67,0"/><path class="cls-1" d="M7.83.78A7,7,0,0,1,11,1.54a7.29,7.29,0,0,1,.74-.49A7.83,7.83,0,1,0,7.83,15.67a7.86,7.86,0,0,0,3.92-1.05,7.29,7.29,0,0,1-.74-.49A7.05,7.05,0,1,1,7.83.78"/><path class="cls-1" d="M13.16,2.09a4.73,4.73,0,0,0-.74.39,7,7,0,0,1,2.46,5.35h.79a7.81,7.81,0,0,0-2.51-5.74"/></g></g></g></svg>