<svg xmlns="http://www.w3.org/2000/svg" viewBox="0 0 1585.96 358.54"><defs><style>.cls-1{fill-rule:evenodd;}.cls-2{fill:#ac895c;}</style></defs><g id="Camada_2" data-name="Camada 2"><g id="Camada_1-2" data-name="Camada 1"><g id="MA"><path class="cls-1" d="M204.54,114.82c-6.66,0-14.27,3.52-17.85,7s-5.38,6.94-4.66,14.42l8.7,90.27c1,9.68,3.65,16,6.12,19.31s11.74,6.46,19.41,7.15v6.78h-74.9v-5.64c7.29-1.87,14.94-3.72,17.22-6.9s4.85-6.6,5.28-14.6l-8.72-96.47L103,259.79h-7.9L44.66,136.18,35,228.27l.09,3.95c.16,6.52,1.56,10.05,4.91,13.93s8.61,5.75,16,7v6.66H0v-6.66c7.79-1.07,15.27-3.52,17.84-7.47a35.85,35.85,0,0,0,6.62-18.23l10-104c-5.7-5.81-13.12-6.36-21.71-7.6V108H61.92l46.6,112.81L156,108h48.39l.11,6.87Z"/><path class="cls-1" d="M329.82,227.22q0,12.32,1.58,17.09c1,3.18,3.16,4.77,6.34,4.77,3.44,0,6.64-4.5,9.51-13.52H354c0,8.5-2.53,15.39-7.54,20.69s-11.65,8-19.84,8q-17.07,0-23.81-19.9c-6.61,7.44-12.78,12.59-18.45,15.52a41.69,41.69,0,0,1-19.26,4.38,40.09,40.09,0,0,1-28.37-10.94q-11.69-11-11.69-26.45,0-24.27,27-34t50.8-18.09V164.36q0-15.5-8.15-24.85t-23.21-9.35a37,37,0,0,0-22.8,7.56q-10.12,7.54-14.49,22.66l-7.15-2q4.38-19.49,18.64-31.43A50.47,50.47,0,0,1,279,115a53.82,53.82,0,0,1,35.52,12.74q15.29,12.72,15.29,39v60.47Zm-27-43.76Q285,190.21,267.51,197q-15.09,7.95-15.08,26.24a27.46,27.46,0,0,0,6.34,18.29q6.35,7.56,15.09,7.56,7.54,0,16.26-4.77a29,29,0,0,0,12.71-13.11V183.46Z"/><path class="cls-1" d="M1561.77,226.76c0,8.22.54,13.92,1.58,17.1s3.18,4.77,6.36,4.77q5.16,0,9.53-13.52H1586q0,12.73-7.52,20.68c-5,5.31-11.66,8-19.85,8-11.35,0-19.31-6.64-23.79-19.89q-9.93,11.14-18.47,15.51a41.45,41.45,0,0,1-19.26,4.38q-16.65,0-28.34-10.94T1457,226.36q0-24.26,27-34t50.82-18.09V163.92c0-10.35-2.7-18.63-8.16-24.87s-13.16-9.35-23.2-9.35a37.21,37.21,0,0,0-22.83,7.57q-10.12,7.54-14.48,22.66l-7.13-2q4.37-19.5,18.66-31.43A50.37,50.37,0,0,1,1511,114.6a53.83,53.83,0,0,1,35.49,12.71q15.27,12.74,15.28,39v60.46Zm-27-43.75q-17.85,6.75-35.33,13.52-15.06,8-15.07,26.25a27.5,27.5,0,0,0,6.35,18.29c4.22,5,9.23,7.56,15.08,7.56q7.51,0,16.28-4.77a29,29,0,0,0,12.69-13.13V183Z"/><path class="cls-1" d="M416,233.21c0,7.68,1.55,12.9,4.66,15.7s9.24,4.16,18.32,4.16v6.77H366.1v-6.77q15.19,0,19.29-5t4.09-22V149.4q0-14.7-5.26-18.87T361,126.35v-6.74l48.31-4.38H416v30.58q19.85-17.44,30-24c6.73-4.36,12.46-6.56,17.14-6.56q12.86,0,25.32,11.12l-10.51,25a169.3,169.3,0,0,0-17.74-8.54c-6.12-2.51-11.1-3.77-15-3.77a26.19,26.19,0,0,0-13,3.37q-6.06,3.38-16.18,13.71v77.06Z"/><path class="cls-1" d="M544.78,232.36c0,10.16,0,15.46,1.79,17.78,3.42,2.76,6.18,2.86,14.57,2.86v6.84H491v-7c10.77.6,16.83-1.78,20.19-2.55,4.1-1.67,5.56-7.61,5.56-17.09V147.93c0-9.17.38-18.16-2.19-18.75a122.38,122.38,0,0,0-17.65-2.64v-6.69l41.55-4.62,6.3-.1V232.36Z"/><path class="cls-1" d="M1412.42,233.17c0,10.19,0,15.47,1.81,17.81,3.36,2.73,6.15,2.86,14.56,2.86v6.82h-70.12v-7c10.75.59,16.84-1.8,20.2-2.56,4.07-1.68,5.56-7.62,5.56-17.08V148.76c0-9.17.33-18.16-2.22-18.74a121.54,121.54,0,0,0-17.65-2.66v-6.68l41.54-4.63,6.32-.1V233.17Z"/><path class="cls-1" d="M664.32,200.06H612.55c-1.84,4.12-14.08,33.05-14.18,36.65-.18,5.45,2.5,10.79,4.5,12.2,2.55,1.78,7.48,4.44,12.11,4.44l-.06,6.44h-43v-6.44c7.19-3.48,7.29-3.09,10.27-6.49s5.74-7.48,8.74-15.69L636.56,105h21.36l44.37,124.39c2.59,7.27,5.42,11.92,8.06,14.75,4,4.25,13.67,9.71,20.54,9.71v5.94H660.5v-6.62c9.08,0,17.64-2.16,17.64-8.23A19.09,19.09,0,0,0,677,239l-12.71-39Zm-25.87-72.5-24.2,62.14h46.63l-22.43-62.14Z"/><path class="cls-1" d="M884,228.74q0,13.89,4.47,18.85c3,3.32,9.28,5,18.91,5v6.76H833.72v-6.76c9.33,0,15.67-1.25,18.89-3.77s4.89-7.08,4.89-13.7V161.63q0-15.88-9.17-24a31.49,31.49,0,0,0-21.64-8.15q-19.47,0-39.37,27.4v68.7q0,16.66,4.12,21.83t19.28,5.16v6.76H737.85v-6.76q14.42,0,18.71-4.36t4.29-22.63v-79q0-12.71-4.29-16.67t-18.71-4v-6.75l42.85-4.37h6.62V143q24.21-28.2,49.91-28.19a46.27,46.27,0,0,1,32.92,13.1Q884,141,884,165.21v63.53Z"/><path class="cls-1" d="M1323.57,229.89c0,9.26,1.48,15.56,4.47,18.86s9.27,5,18.9,5v6.76h-73.65v-6.76c9.33,0,15.65-1.26,18.88-3.76s4.88-7.09,4.88-13.71V162.79q0-15.89-9.15-24a31.5,31.5,0,0,0-21.63-8.14q-19.5,0-39.36,27.4v68.69c0,11.13,1.34,18.4,4.09,21.84s9.15,5.16,19.28,5.16v6.76h-72.86v-6.76c9.6,0,15.85-1.45,18.7-4.36s4.29-10.46,4.29-22.64v-79q0-12.7-4.29-16.68c-2.85-2.65-9.1-4-18.7-4V120.3l42.86-4.37h6.63v28.19Q1251,116,1276.8,115.93A46.2,46.2,0,0,1,1309.72,129q13.83,13.1,13.85,37.31v63.54Z"/><path class="cls-1" d="M957.55,143.88h41.58v9.4H957.55l-.63,74.05c-.17,16.42,6.85,25.22,21.69,25.22,8.34,0,21.77-3.77,28.74-11.32l3.82,4.33c-10.89,13.1-29.09,19.64-43,19.64q-15.63,0-25.59-9.48c-6.59-6.33-12.13-14.6-12.13-24.82V153.28H903.76v-7c11.56-3.07,32.31-17,46.42-40.78h7.37v38.34Z"/><path class="cls-1" d="M1089.15,176.79a11,11,0,1,1-11,11,11,11,0,0,1,11-11Z"/><path class="cls-1" d="M1089.09,121.11c33.73,0,47.62,30,47.62,66.74s-14.71,66.73-47.62,66.73-47.62-30-47.62-66.73,13.85-66.74,47.62-66.74Zm0-7.67c47.3,0,77.1,33.44,77.1,74.44s-30.64,74.45-77.1,74.45S1012,228.89,1012,187.88s29.8-74.44,77.09-74.44Z"/></g><path d="M144,340.05a105.27,105.27,0,0,1,1.34-16.49c.58-3.26,6.9,1,6.33,3.45.19,5-.58,8.44-.38,14.77,6.7-7.29,13.22-15,21.47-19,1.53-.77,4.79,1.15,6.32,3.26,2.11,5,2.3,9,4,15.72l18.6-15.15c1.34-1,5,1,6.32,3.07,1.92,3.83,2.88,10.73,6.71,14a13,13,0,0,0,7.09,2.3c6.14,0,27-9.39,29.72-14,.57-1,3.07.57.77,4.79-2.88,5.18-15.34,14.57-26.27,14.57a24.24,24.24,0,0,1-12.84-3.83,26.35,26.35,0,0,1-6.52-6.52,23.39,23.39,0,0,1-2.88-5.75c-8.62,7.09-13.42,10.92-18.59,14.38-1.54.76-5.18-1.15-6.33-3.26-1.92-4.22-3.07-8.63-4.79-16.11-9.78,6.33-15.15,16.49-22.62,23-1.54,1.34-6.52-2.49-7.1-4.79C144.19,345.61,144,342.73,144,340.05Z"/><path d="M248.1,345a17.63,17.63,0,0,1-1-5.56c0-8.43,5.75-17.06,15.14-17.44,6,0,11.51,5.75,9.4,11.31-2.5,6.13-10.74,10.74-17.45,10.74.58,3.64,7.29,9.77,14,9.77,18,0,31.44-13.42,39.49-21.85,4.41-4.6,3.64-.19,1,5.17-5.37,11.12-17.64,20.52-30.87,21.28C266.5,359,251.93,356.92,248.1,345Zm5.94-5.56c8-3.64,13.42-8.81,11.31-10.92C261.32,324.52,253.85,334.68,254,339.47Z"/><path d="M309.44,340.05a104,104,0,0,1,1.35-16.49c.57-3.26,6.9,1,6.32,3.45.19,5-.57,8.44-.38,14.77,6.71-7.29,13.23-15,21.47-19,1.53-.77,4.79,1.15,6.33,3.26,2.11,5,2.3,9,4,15.72l18.6-15.15c1.34-1,5,1,6.33,3.07,1.91,3.83,2.87,10.73,6.71,14a13,13,0,0,0,7.09,2.3c6.13,0,27-9.39,29.71-14,.58-1,3.07.57.77,4.79-2.88,5.18-15.34,14.57-26.26,14.57a24.25,24.25,0,0,1-12.85-3.83,26.52,26.52,0,0,1-6.52-6.52,23,23,0,0,1-2.87-5.75c-8.63,7.09-13.42,10.92-18.6,14.38-1.53.76-5.17-1.15-6.32-3.26-1.92-4.22-3.07-8.63-4.8-16.11-9.77,6.33-15.14,16.49-22.62,23-1.53,1.34-6.52-2.49-7.09-4.79C309.64,345.61,309.44,342.73,309.44,340.05Z"/><path d="M415.46,331.81c1-7.67,9-10,14-8.82,7.86,1.92,13.23,8.24,13.42,17.83,11.12-2.49,22.63-7.48,27.42-9,5.56-2.11,5,.19,1.53,3.64-5.75,5.75-19.36,10.54-30.1,11.89-2.87,5.94-8.05,11.5-16.87,10.35-9.58-1.15-14-9.2-14-14.19C410.86,337.56,413,334.11,415.46,331.81Zm2.87,9c-.57,5.75,1.54,11.31,5.95,12.07,4,.77,7.86-2.1,9-5.36C427.92,347.34,421.79,344.84,418.33,340.82Zm16.11-6.14c-1.34-4-4.6-7.28-9-6.71-2.49.39-5.37,3.07-4.41,7.48,1.15,5.18,7.48,7.48,14,6.9A16.85,16.85,0,0,0,434.44,334.68ZM424.28,313.4c2.11-2.68,11.69-8,15-10.73,1.73-1.35,8,2.49,6.33,5-13,7.86-18,11.12-20.71,9C422.94,315.51,423.51,314,424.28,313.4Z"/><path d="M469.52,323.56c0-1.34,1.92-1.34,3.83-.38a5.59,5.59,0,0,1,2.88,4l-.19,7.47c4.79-6.13,19-17.25,29.52-15.53,4.41.77,7.1,4.8,5.75,6.33-2.68,3.07-5.36,1.92-5.17.38l.19-1.53c-9.59-.19-25.5,11.5-30.1,24.73-.57,1.53-.57,2.68-1.34,8.24.19,2.5-6.14,0-6.9-2.87C467.22,352.7,466.84,347.72,469.52,323.56Z"/><path d="M518.79,335.83c0-5.94,1.15-11.88,3.26-15.14.19-1,2.11-1.15,4.41-.58,2.11.77,3.26,2.3,3.07,3.26-1.54,1.54-5.37,23.2-2.5,25.69a9.17,9.17,0,0,0,5.56,1.73c11.89,0,32.21-15.34,38-21.09.77-.77,2.69.38.39,4.6-3.65,6.71-21.09,21.85-34.32,22.43-4.79.19-10-1-13.61-5C520.13,348.68,518.79,342.16,518.79,335.83ZM524.54,304c.39-.58,1.73-4.41,2.11-5.37l.38-2.87c0-1.16,2.11-1.54,4-.77,2.49.57,4,2.11,3.64,3.07a7.35,7.35,0,0,1-.57,3.25c-.39,1-1.92,5.18-2.49,6.14-.58.77-2.88.77-4.61-.19C524.73,306.5,523.58,304.78,524.54,304Z"/><path d="M638.42,355.39a79,79,0,0,1-17.83-1.73c-6.33-1.72-17.25-9.78-17.25-15.33v-.2c-6.71,5-15.34,13-24.93,13a16.31,16.31,0,0,1-12.84-7.29,12.68,12.68,0,0,1-1.92-6.51c0-3.26,1.53-6.33,5-9,3.64-2.88,9.77-4.8,17.44-4.8a55.83,55.83,0,0,1,14.95,2.3l2.69.77c2.87-3.83,3.26-4,3.26-4.22,1.15-2.11,7.67,2.11,6.71,4.41l-.39.58a19.32,19.32,0,0,0-2.87,10c0,4.21,1.72,7.86,5.94,9.2,4,1.15,10.35,1.53,18.21,1.53,22.63,0,55.6-3.83,64.23-6.32,1.34-.39,8.43-2.11,9.39-.58,1.54,1.53-6.52,4.6-7.86,5C686.92,350.59,659.51,355.39,638.42,355.39Zm-38.73-24.54.39-.39-2.3-.38a35.65,35.65,0,0,0-7.86-.77c-5.37,0-10.93,1.15-15.34,4.22-2.69,1.73-4.79,5.37-4.79,8.05,0,2.11,1.34,3.84,4.79,3.84C582.44,345.42,594.32,336.79,599.69,330.85Z"/><path d="M771.08,334.3c1.15-9.59,7.86-15.72,15.91-15.72a14.09,14.09,0,0,1,5.56,1c2.69,1.34,4.41,3.26,4.6,5.56.58,6.9-8,14.76-18.78,14,.57,10,9.58,14,18.78,14,24.54,0,78.8-23,84-27,1-.77,2.88-.39,2.49,1.15-2.49,10.16-51,29.9-81.28,30.67C786.61,358.26,769.16,352.13,771.08,334.3Zm7.67-.19c4.22,1.53,12.08-5.18,12.84-9.2C783.54,324,779.52,329.31,778.75,334.11Z"/><path d="M941.13,331.62a39.21,39.21,0,0,1,.76-8.25c.19-1.34,1.92-1.92,3.84-1,1.15.77,2.68,2.69,2.3,4-.77,5.94,0,20.7,3.83,25.3,3.45-.19,9.59-14.76,11.5-20.32-1.15-4,.39-7.09,2.11-8.24,2.3-1,6.52,2.3,4.8,8.05v.19a37.05,37.05,0,0,0,11.5,1.73,121.9,121.9,0,0,0,17.64-1.73c5-.76,1.53,3.84-2.69,5.37a56.52,56.52,0,0,1-16.1,2.3c-4.79,0-9.4-.57-12.08-2.68-2.11,7.09-7.09,17.25-11.89,18.78-3.25,1-5.75,1.73-8.62-1.14C943.23,348.29,941.13,339.67,941.13,331.62Z"/><path d="M992.89,335.83c0-5.94,1.15-11.88,3.26-15.14.19-1,2.1-1.15,4.41-.58,2.1.77,3.25,2.3,3.06,3.26-1.53,1.54-5.37,23.2-2.49,25.69a9.13,9.13,0,0,0,5.56,1.73c11.89,0,32.21-15.34,38-21.09.77-.77,2.68.38.38,4.6-3.64,6.71-21.09,21.85-34.31,22.43-4.8.19-10-1-13.62-5C994.23,348.68,992.89,342.16,992.89,335.83ZM998.64,304c.38-.58,1.72-4.41,2.11-5.37l.38-2.87c0-1.16,2.11-1.54,4-.77,2.49.57,4,2.11,3.64,3.07a7.24,7.24,0,0,1-.58,3.25c-.38,1-1.91,5.18-2.49,6.14-.57.77-2.87.77-4.6-.19C998.83,306.5,997.68,304.78,998.64,304Z"/><path d="M1041.2,331.62a38.56,38.56,0,0,1,.77-8.25c.19-1.34,1.91-1.92,3.83-1,1.15.77,2.68,2.69,2.3,4-.77,5.94,0,20.7,3.83,25.3,3.45-.19,9.59-14.76,11.51-20.32-1.15-4,.38-7.09,2.1-8.24,2.31-1,6.52,2.3,4.8,8.05v.19a37.05,37.05,0,0,0,11.5,1.73,121.76,121.76,0,0,0,17.64-1.73c5-.76,1.53,3.84-2.69,5.37a56.46,56.46,0,0,1-16.1,2.3c-4.79,0-9.39-.57-12.08-2.68-2.11,7.09-7.09,17.25-11.88,18.78-3.26,1-5.75,1.73-8.63-1.14C1043.31,348.29,1041.2,339.67,1041.2,331.62Z"/><path d="M1091.43,345a17.63,17.63,0,0,1-1-5.56c0-8.43,5.75-17.06,15.14-17.44,6,0,11.5,5.75,9.4,11.31-2.5,6.13-10.74,10.74-17.45,10.74.58,3.64,7.29,9.77,14,9.77,18,0,31.44-13.42,39.49-21.85,4.41-4.6,3.64-.19,1,5.17-5.37,11.12-17.64,20.52-30.87,21.28C1109.83,359,1095.26,356.92,1091.43,345Zm15.14-34.12-5.94,4c-1.15.95-4.41,1.53-5.75,0-1.54-1-.77-2.69.38-3.45a100.8,100.8,0,0,0,8.24-7.29c1.92-.77,5.56.38,6.71,2.11,1.15,2.3,3.45,4,6.33,6.33,1.92.95,2.3,2.68.77,3.83-.77.77-2.69.57-4.41-.38C1111,314.55,1108.3,312.83,1106.57,310.91Zm-9.2,28.56c8.05-3.64,13.42-8.81,11.31-10.92C1104.65,324.52,1097.18,334.68,1097.37,339.47Z"/><path d="M1149.51,345.23l1.92-19.17c0-1.35,1.92-1.54,3.83-.77,1.54,1,3.26,2.68,3.07,3.83l-.38,6.52c6.52-4.79,20.32-11.69,31.06-10.54,3.64.38,7.09,3.83,7.09,6.71,0,3.26-2.11,10.54.38,14.18a9.85,9.85,0,0,0,6.52,2.11c11.89,0,28.57-15.14,34.7-18.21.77-.38,1.53,3.83-1.34,7.48-4.6,5.94-17.06,16.1-30.48,16.1-5.56,0-11.7-2.3-15.15-7.29a16.67,16.67,0,0,1-2.49-9.58,39.48,39.48,0,0,1,.57-6.52c-14.18,1.54-28.75,10.74-32.4,18.79l-.19,4.41c.19,2.49-6.52.77-6.71-2.3A19.25,19.25,0,0,1,1149.51,345.23Z"/><path d="M1250.93,352.51c15.91-1.15,29.71-11.31,41.22-21.47,1.15-.77,2.49,2.49,1.15,5-3.07,5.76-15.72,20.9-39.11,22.24-11.12,0-22-7.47-21.48-19.93a19.13,19.13,0,0,1,6.91-14.19A16.6,16.6,0,0,1,1250,320.3a14.81,14.81,0,0,1,7.09,1.73c2.49,1.34,4.22,3.64,4.41,5.56,0,3.26-4,4.6-5.75,5.18-1.92.76-3.64,0-2.3-2.5a12,12,0,0,0,1.34-4.41c-7.09-1.53-14.18,5.56-15.72,12.85C1237.32,347,1242.3,352.51,1250.93,352.51Z"/><path d="M1287,335.83c0-5.94,1.15-11.88,3.26-15.14.19-1,2.11-1.15,4.41-.58,2.11.77,3.26,2.3,3.06,3.26-1.53,1.54-5.36,23.2-2.49,25.69a9.15,9.15,0,0,0,5.56,1.73c11.89,0,32.21-15.34,38-21.09.77-.77,2.68.38.38,4.6-3.64,6.71-21.09,21.85-34.31,22.43-4.8.19-10-1-13.61-5C1288.31,348.68,1287,342.16,1287,335.83Zm5.75-31.82c.38-.58,1.72-4.41,2.11-5.37l.38-2.87c0-1.16,2.11-1.54,4-.77,2.49.57,4,2.11,3.64,3.07a7.24,7.24,0,0,1-.58,3.25c-.38,1-1.91,5.18-2.49,6.14-.57.77-2.87.77-4.6-.19C1292.91,306.5,1291.76,304.78,1292.72,304Z"/><path d="M1329.91,342.16c0-4.22,2.11-8.44,6.9-11.7a33.32,33.32,0,0,1,18.41-5.17,38.87,38.87,0,0,1,15.53,3.26h.19l3.26-4.41c1.15-2.11,7.66,2.11,6.32,4.41-1,2.87-2.68,6.32-3.07,10-.19,3.26.77,7.09,4.22,8.05,9.78,1.92,26.27-7.86,33.17-15.53,3.26-3.26,6.13,1.53-4.41,12.08-4.79,4.79-18,10.93-26.07,9-6.33-1.54-11.12-5.18-13.61-12.08-5.37,4.79-18,14.57-28.19,14.57a12.45,12.45,0,0,1-6.9-1.92C1331.83,349.83,1329.91,346.18,1329.91,342.16Zm37.58-9.78a27.49,27.49,0,0,0-7.48-1c-9.59,0-22.24,3.65-24.35,12.46a3.5,3.5,0,0,0,3.45,4.61C1348.32,347.34,1360.78,339.47,1367.49,332.38Z"/><path d="M1412.54,351.55a29.14,29.14,0,0,0,6.32.58,93.75,93.75,0,0,0,18.79-2.11c-4.79-2.49-12.08-6.14-15.91-8.24-5-2.88-10.35-4.8-11.12-10.55-1.53-10.16,19.36-16.29,29.14-17.64,3.07-.38,6.9,3.26,5.37,5.18-7.09,2.49-24.54,5.75-26.65,10.74-1.15,2.68,3.26,4.6,7.09,6.9,7.29,4,13,6.9,16.88,10,4.21,3.64.57,9-4.41,10.35a53.89,53.89,0,0,1-13.42,1.53c-4.8,0-9.4-.57-12.27-1.72C1410.05,355.39,1408.32,350.59,1412.54,351.55Z"/><path class="cls-1" d="M858.33,1.51"/><path class="cls-2" d="M858.33,3a1.5,1.5,0,0,0,0-3,1.5,1.5,0,0,0,0,3Z"/><path d="M329.55,53.4A23.32,23.32,0,0,1,318.7,51a17.86,17.86,0,0,1-7.22-6.61,18.08,18.08,0,0,1-2.55-9.58,18.39,18.39,0,0,1,2.52-9.64,17.91,17.91,0,0,1,6.88-6.58,21.59,21.59,0,0,1,19.45-.13,16.88,16.88,0,0,1,6.75,6.45,19.32,19.32,0,0,1,2.49,10c0,.4,0,.86-.07,1.38s-.09,1-.14,1.44H317.46V31.64h23.85l-4,1.81a9.94,9.94,0,0,0-1.15-4.9A8.3,8.3,0,0,0,333,25.29a9.21,9.21,0,0,0-4.7-1.18,9.39,9.39,0,0,0-4.74,1.18,8.15,8.15,0,0,0-3.19,3.29,10.4,10.4,0,0,0-1.14,5V35.2a10.07,10.07,0,0,0,1.31,5.2,8.56,8.56,0,0,0,3.69,3.43A12.6,12.6,0,0,0,329.82,45a13.59,13.59,0,0,0,5.07-.87,12.2,12.2,0,0,0,4-2.62l5.57,6.05a16.25,16.25,0,0,1-6.24,4.33A23.1,23.1,0,0,1,329.55,53.4Z"/><path d="M371.94,52.86l16.18-21.22-.2,5.77L372.41,16.73h11.75L394,30.23l-4.44.13,10.15-13.63h11.15L395.24,37.21V31.57l16.12,21.29H399.48L389.2,38.49l4.36.6L383.35,52.86Z"/><path d="M440,65.89V16.73h10v7.38l-.21,10.75.68,10.68V65.89ZM461.34,53.4a15.44,15.44,0,0,1-8-2A13.44,13.44,0,0,1,448,45.24a25,25,0,0,1-1.91-10.45,26,26,0,0,1,1.81-10.47,12.91,12.91,0,0,1,5.24-6.12,16,16,0,0,1,8.2-2,18.14,18.14,0,0,1,9.17,2.32A17.06,17.06,0,0,1,477,25a19.36,19.36,0,0,1,2.39,9.8A19.56,19.56,0,0,1,477,44.67a17,17,0,0,1-6.44,6.45A18.43,18.43,0,0,1,461.34,53.4Zm-1.82-8.6a9,9,0,0,0,4.67-1.21,8.86,8.86,0,0,0,3.29-3.46,10.86,10.86,0,0,0,1.25-5.34,10.82,10.82,0,0,0-1.25-5.37,8.74,8.74,0,0,0-8-4.63,9.26,9.26,0,0,0-4.7,1.2,8.7,8.7,0,0,0-3.29,3.43,11,11,0,0,0-1.21,5.37,11.08,11.08,0,0,0,1.21,5.34,8.58,8.58,0,0,0,3.29,3.46A9.17,9.17,0,0,0,459.52,44.8Z"/><path d="M527,53.4A21.23,21.23,0,0,1,516.78,51a18.54,18.54,0,0,1-7-6.61,17.92,17.92,0,0,1-2.58-9.58,18.06,18.06,0,0,1,2.58-9.64,18.31,18.31,0,0,1,7-6.58,23.18,23.18,0,0,1,20.46,0,18,18,0,0,1,7,6.55,18.15,18.15,0,0,1,2.55,9.67A17.79,17.79,0,0,1,537.24,51,21.27,21.27,0,0,1,527,53.4Zm0-8.6a9.17,9.17,0,0,0,4.7-1.21A8.52,8.52,0,0,0,535,40.13a11.08,11.08,0,0,0,1.21-5.34A11,11,0,0,0,535,29.42,8.63,8.63,0,0,0,531.73,26a9.8,9.8,0,0,0-9.4,0A8.93,8.93,0,0,0,519,29.42a10.82,10.82,0,0,0-1.24,5.37A10.86,10.86,0,0,0,519,40.13a8.81,8.81,0,0,0,3.33,3.46A9.12,9.12,0,0,0,527,44.8Z"/><path d="M589.49,53.4a35.16,35.16,0,0,1-8.89-1.11,22.08,22.08,0,0,1-6.76-2.79l3.5-7.52a23.12,23.12,0,0,0,5.87,2.52,24.17,24.17,0,0,0,6.69,1A11,11,0,0,0,595,44.6a2.7,2.7,0,0,0,1.51-2.42,2,2,0,0,0-1.18-1.91,10.25,10.25,0,0,0-3.12-1c-1.3-.22-2.72-.44-4.27-.67s-3.1-.52-4.66-.9A15.73,15.73,0,0,1,579,36a8.82,8.82,0,0,1-3.13-3.09,9.65,9.65,0,0,1-1.17-5,9.76,9.76,0,0,1,2-6.05,13.07,13.07,0,0,1,5.74-4.13,24.08,24.08,0,0,1,9-1.51A37,37,0,0,1,599,17a20.84,20.84,0,0,1,6.38,2.35l-3.5,7.46a17.88,17.88,0,0,0-5.27-2.12,24.44,24.44,0,0,0-5.14-.57,10.58,10.58,0,0,0-5.1.94,2.77,2.77,0,0,0-1.61,2.42,2.19,2.19,0,0,0,1.17,2A10.77,10.77,0,0,0,589,30.56c1.3.27,2.73.51,4.27.71a39.18,39.18,0,0,1,4.67.9,16.89,16.89,0,0,1,4.26,1.72,9,9,0,0,1,3.13,3,9.3,9.3,0,0,1,1.21,5,9.45,9.45,0,0,1-2,6,13.2,13.2,0,0,1-5.81,4.06A25.43,25.43,0,0,1,589.49,53.4Z"/><path d="M641.75,11.69a6.65,6.65,0,0,1-4.7-1.68,5.45,5.45,0,0,1-1.81-4.17,5.44,5.44,0,0,1,1.81-4.16A6.65,6.65,0,0,1,641.75,0a6.9,6.9,0,0,1,4.7,1.58,5.14,5.14,0,0,1,1.82,4.06A5.77,5.77,0,0,1,646.49,10,6.53,6.53,0,0,1,641.75,11.69Zm-5.24,41.17V16.73H647V52.86Z"/><path d="M697.7,53.4A22.3,22.3,0,0,1,687.29,51a17.8,17.8,0,0,1-9.74-16.23,17.68,17.68,0,0,1,9.74-16.22,22.18,22.18,0,0,1,10.41-2.38,19.9,19.9,0,0,1,9.94,2.38,14.47,14.47,0,0,1,6.25,6.82l-8.13,4.37A9.42,9.42,0,0,0,702.24,26a9.18,9.18,0,0,0-4.6-1.2A9.76,9.76,0,0,0,692.8,26a8.8,8.8,0,0,0-3.39,3.43,10.82,10.82,0,0,0-1.24,5.37,10.84,10.84,0,0,0,1.24,5.38,8.71,8.71,0,0,0,3.39,3.42,9.66,9.66,0,0,0,4.84,1.21,9.37,9.37,0,0,0,4.6-1.17,9.13,9.13,0,0,0,3.52-3.8l8.13,4.43A14.52,14.52,0,0,1,707.64,51,20,20,0,0,1,697.7,53.4Zm-3.82,15.05a14.19,14.19,0,0,1-3.4-.41,13.9,13.9,0,0,1-2.85-1l1.61-4.51a11.21,11.21,0,0,0,2.08.74,9.39,9.39,0,0,0,2.29.27,4.57,4.57,0,0,0,2.68-.6,1.86,1.86,0,0,0,.81-1.55,1.66,1.66,0,0,0-.77-1.41,4.53,4.53,0,0,0-2.52-.54h-2.29l1.75-7.12h5.58l-.94,3.9a6.66,6.66,0,0,1,4.43,1.92,5.32,5.32,0,0,1,1.41,3.66,5.58,5.58,0,0,1-2.69,4.83A12.64,12.64,0,0,1,693.88,68.45Z"/><path d="M754.6,53.4A16.76,16.76,0,0,1,747.34,52,11.11,11.11,0,0,1,742.71,48a10.63,10.63,0,0,1,0-11.22,10.34,10.34,0,0,1,5-3.8,24.46,24.46,0,0,1,8.93-1.37h9.6v6.11h-8.46q-3.69,0-5.07,1.21a3.84,3.84,0,0,0-1.38,3,3.77,3.77,0,0,0,1.58,3.19,7.07,7.07,0,0,0,4.33,1.18,9,9,0,0,0,4.71-1.25,7.1,7.1,0,0,0,3-3.66l1.61,4.84a9.37,9.37,0,0,1-4.16,5.31A15.1,15.1,0,0,1,754.6,53.4Zm11-.54v-7l-.67-1.55V31.64a6.74,6.74,0,0,0-2.05-5.24c-1.37-1.26-3.46-1.88-6.28-1.88a18.38,18.38,0,0,0-5.68.9,15.22,15.22,0,0,0-4.73,2.46l-3.76-7.33a22.77,22.77,0,0,1,7.12-3.22A31.83,31.83,0,0,1,758,16.19q8.26,0,12.83,3.89t4.57,12.16V52.86Zm-1.48-40.57a7.08,7.08,0,0,1-3.09-.64,12.89,12.89,0,0,1-2.42-1.47c-.71-.56-1.38-1.06-2-1.48a3.3,3.3,0,0,0-1.88-.64,2.87,2.87,0,0,0-2.22,1,4.53,4.53,0,0,0-1,2.79H746.2a11.86,11.86,0,0,1,2.22-7.15A6.76,6.76,0,0,1,754.06,2a7.23,7.23,0,0,1,3.09.63,13.41,13.41,0,0,1,2.45,1.51c.74.59,1.42,1.09,2,1.52a3.28,3.28,0,0,0,1.81.63,2.94,2.94,0,0,0,2.29-1,4.12,4.12,0,0,0,.94-2.65H772a11.09,11.09,0,0,1-2.18,7A6.88,6.88,0,0,1,764.13,12.29Z"/><path d="M825.86,53.4A21.19,21.19,0,0,1,815.62,51a18.39,18.39,0,0,1-7-6.61A17.84,17.84,0,0,1,806,34.79a18,18,0,0,1,2.59-9.64,18.17,18.17,0,0,1,7-6.58,23.15,23.15,0,0,1,20.45,0,17.65,17.65,0,0,1,9.61,16.22A17.82,17.82,0,0,1,836.07,51,21.24,21.24,0,0,1,825.86,53.4Zm0-8.6a9.14,9.14,0,0,0,4.7-1.21,8.52,8.52,0,0,0,3.29-3.46,11.08,11.08,0,0,0,1.21-5.34,11,11,0,0,0-1.21-5.37A8.63,8.63,0,0,0,830.56,26a9.8,9.8,0,0,0-9.4,0,8.93,8.93,0,0,0-3.33,3.43,10.93,10.93,0,0,0-1.24,5.37,11,11,0,0,0,1.24,5.34,8.81,8.81,0,0,0,3.33,3.46A9.17,9.17,0,0,0,825.86,44.8Z"/><path d="M928.49,52.86,913.32,16.73h10.81l12.63,31.09h-5.38l13.1-31.09h10.08L939.31,52.86Z"/><path d="M987.6,11.69A6.65,6.65,0,0,1,982.9,10a5.45,5.45,0,0,1-1.81-4.17,5.44,5.44,0,0,1,1.81-4.16A6.65,6.65,0,0,1,987.6,0a6.93,6.93,0,0,1,4.71,1.58,5.17,5.17,0,0,1,1.81,4.06A5.73,5.73,0,0,1,992.34,10,6.53,6.53,0,0,1,987.6,11.69Zm-5.24,41.17V16.73h10.48V52.86Z"/><path d="M1026.09,52.86V16.73h10V26.94l-1.41-3a11.61,11.61,0,0,1,5.17-5.81,17.59,17.59,0,0,1,8.67-2v9.67l-1.21-.1c-.36,0-.74,0-1.15,0a9.82,9.82,0,0,0-7,2.45q-2.65,2.45-2.65,7.62V52.86Z"/><path d="M1075.26,25.59V17.53h25v8.06Zm19.07,27.81q-6.37,0-9.94-3.26t-3.56-9.7V8.73h10.48V40.3a4.89,4.89,0,0,0,1.21,3.53,4.37,4.37,0,0,0,3.29,1.24,6.75,6.75,0,0,0,4.23-1.34l2.83,7.39a11.61,11.61,0,0,1-3.87,1.71A18.9,18.9,0,0,1,1094.33,53.4Z"/><path d="M1147.53,53.4a17.74,17.74,0,0,1-8-1.75,12.34,12.34,0,0,1-5.48-5.34,19.09,19.09,0,0,1-2-9.17V16.73h10.48V35.6q0,4.5,1.92,6.62a6.89,6.89,0,0,0,5.4,2.11,8.64,8.64,0,0,0,4.3-1,7.16,7.16,0,0,0,3-3.22,12.47,12.47,0,0,0,1.07-5.48V16.73h10.48V52.86h-9.94V42.92l1.81,2.89a12.42,12.42,0,0,1-5.34,5.68A15.91,15.91,0,0,1,1147.53,53.4Z"/><path d="M1213.09,53.4a16.71,16.71,0,0,1-7.25-1.44A11.14,11.14,0,0,1,1201.2,48a10.66,10.66,0,0,1,0-11.22,10.36,10.36,0,0,1,5-3.8,24.52,24.52,0,0,1,8.94-1.37h9.6v6.11h-8.46q-3.7,0-5.07,1.21a3.84,3.84,0,0,0-1.38,3,3.77,3.77,0,0,0,1.58,3.19,7,7,0,0,0,4.33,1.18,9,9,0,0,0,4.7-1.25,7,7,0,0,0,3-3.66l1.62,4.84a9.39,9.39,0,0,1-4.17,5.31A15,15,0,0,1,1213.09,53.4Zm11-.54v-7l-.68-1.55V31.64a6.77,6.77,0,0,0-2-5.24c-1.37-1.26-3.46-1.88-6.28-1.88a18.38,18.38,0,0,0-5.68.9,15.16,15.16,0,0,0-4.74,2.46l-3.76-7.33a22.87,22.87,0,0,1,7.12-3.22,32,32,0,0,1,8.47-1.14q8.25,0,12.83,3.89t4.56,12.16V52.86Z"/><path d="M1266.89,52.86V3h10.48V52.86Z"/></g></g></svg>