<svg xmlns="http://www.w3.org/2000/svg" viewBox="0 0 135.68 13.71"><defs><style>.cls-1{fill:#fff;fill-rule:evenodd;}</style></defs><g id="Camada_2" data-name="Camada 2"><g id="Layer_1" data-name="Layer 1"><g id="MA"><path class="cls-1" d="M17.5.84a2.47,2.47,0,0,0-1.53.6,1.33,1.33,0,0,0-.4,1.24l.75,7.72a3.35,3.35,0,0,0,.52,1.65,2.85,2.85,0,0,0,1.66.61v.58H12.09v-.48a3.2,3.2,0,0,0,1.48-.59A2.05,2.05,0,0,0,14,10.92l-.75-8.25L8.81,13.24H8.14L3.82,2.67,3,10.55v.33a1.66,1.66,0,0,0,.42,1.2,2.16,2.16,0,0,0,1.37.59v.57H0v-.57A2.3,2.3,0,0,0,1.53,12a3,3,0,0,0,.56-1.56L3,1.58A2.89,2.89,0,0,0,1.09.93V.25H5.3l4,9.65L13.35.25h4.14V.84Z"/><path class="cls-1" d="M28.22,10.46a5.37,5.37,0,0,0,.13,1.46.53.53,0,0,0,.54.41c.3,0,.57-.39.82-1.16h.58a2.46,2.46,0,0,1-.65,1.77,2.24,2.24,0,0,1-1.7.68,2.1,2.1,0,0,1-2-1.7,6.07,6.07,0,0,1-1.58,1.33,3.71,3.71,0,0,1-1.65.37,3.37,3.37,0,0,1-2.42-.94,3,3,0,0,1-1-2.26,3,3,0,0,1,2.31-2.91L25.91,6V5.08A3.09,3.09,0,0,0,25.21,3a2.49,2.49,0,0,0-2-.8,3.2,3.2,0,0,0-1.95.65A3.61,3.61,0,0,0,20,4.74l-.61-.17A4.73,4.73,0,0,1,21,1.88a4.3,4.3,0,0,1,2.85-1,4.59,4.59,0,0,1,3,1.09,4.09,4.09,0,0,1,1.31,3.33v5.18ZM25.91,6.71l-3,1.16a2.34,2.34,0,0,0-1.29,2.24,2.36,2.36,0,0,0,.54,1.57,1.64,1.64,0,0,0,1.29.65,3,3,0,0,0,1.39-.41,2.51,2.51,0,0,0,1.09-1.12V6.71Z"/><path class="cls-1" d="M133.61,10.42a5.26,5.26,0,0,0,.14,1.46.53.53,0,0,0,.54.41c.3,0,.57-.39.82-1.16h.57A2.45,2.45,0,0,1,135,12.9a2.25,2.25,0,0,1-1.7.68,2.1,2.1,0,0,1-2-1.7,5.88,5.88,0,0,1-1.58,1.33,3.58,3.58,0,0,1-1.65.37,3.45,3.45,0,0,1-2.43-.93,3,3,0,0,1-1-2.27A3,3,0,0,1,127,7.47c1.54-.55,3-1.07,4.35-1.54V5a3.13,3.13,0,0,0-.7-2.13,2.5,2.5,0,0,0-2-.8,3.2,3.2,0,0,0-2,.65,3.55,3.55,0,0,0-1.24,1.94l-.61-.17a4.73,4.73,0,0,1,1.6-2.69,4.3,4.3,0,0,1,2.85-1,4.59,4.59,0,0,1,3,1.09,4.1,4.1,0,0,1,1.3,3.33v5.18Zm-2.3-3.75-3,1.16A2.34,2.34,0,0,0,127,10.08a2.36,2.36,0,0,0,.55,1.56,1.64,1.64,0,0,0,1.29.65,3,3,0,0,0,1.39-.41,2.51,2.51,0,0,0,1.09-1.12V6.67Z"/><path class="cls-1" d="M35.59,11a1.74,1.74,0,0,0,.4,1.34,2.43,2.43,0,0,0,1.57.36v.58H31.32v-.58c.87,0,1.42-.14,1.65-.43a3.23,3.23,0,0,0,.35-1.88V3.8q0-1.26-.45-1.62a3.67,3.67,0,0,0-2-.35V1.25L35,.87h.57V3.49a24.57,24.57,0,0,1,2.57-2.05A2.8,2.8,0,0,1,39.62.87a3.24,3.24,0,0,1,2.17,1L40.89,4a14.14,14.14,0,0,0-1.52-.73,3.48,3.48,0,0,0-1.28-.33A2.31,2.31,0,0,0,37,3.2a7.6,7.6,0,0,0-1.38,1.18V11Z"/><path class="cls-1" d="M46.61,10.9c0,.87,0,1.32.15,1.52s.53.24,1.25.24v.59H42v-.6a4.8,4.8,0,0,0,1.73-.22c.35-.14.47-.65.47-1.46V3.67c0-.78,0-1.55-.19-1.6a11.94,11.94,0,0,0-1.51-.23V1.27l3.56-.4h.54v10Z"/><path class="cls-1" d="M120.84,11c0,.87,0,1.32.15,1.52s.53.24,1.25.24v.59h-6v-.6A4.8,4.8,0,0,0,118,12.5c.34-.14.47-.65.47-1.46V3.74c0-.78,0-1.55-.19-1.6a11.94,11.94,0,0,0-1.51-.23V1.34L120.3,1h.54V11Z"/><path class="cls-1" d="M56.83,8.13H52.41a30.19,30.19,0,0,0-1.22,3.14,1.44,1.44,0,0,0,.39,1,2,2,0,0,0,1,.38v.55H48.93v-.55c.61-.3.62-.26.88-.55a3.83,3.83,0,0,0,.74-1.35L54.46,0h1.83l3.79,10.64a3.69,3.69,0,0,0,.69,1.26,3,3,0,0,0,1.76.83v.51h-6v-.56c.77,0,1.51-.19,1.51-.71a1.48,1.48,0,0,0-.1-.5L56.83,8.13Zm-2.21-6.2L52.55,7.25h4L54.62,1.93Z"/><path class="cls-1" d="M75.63,10.59A2.5,2.5,0,0,0,76,12.2a2.25,2.25,0,0,0,1.62.42v.58h-6.3v-.58a2.75,2.75,0,0,0,1.61-.32,1.38,1.38,0,0,0,.42-1.17V4.84a2.6,2.6,0,0,0-.78-2,2.73,2.73,0,0,0-1.85-.7c-1.11,0-2.24.78-3.37,2.35v5.87a3.35,3.35,0,0,0,.35,1.87c.23.3.78.44,1.65.44v.58H63.13v-.58a2.37,2.37,0,0,0,1.6-.37,3.21,3.21,0,0,0,.36-1.94V3.55a2,2,0,0,0-.36-1.42,2.53,2.53,0,0,0-1.6-.34V1.21L66.79.84h.57V3.25Q69.43.84,71.63.84A3.93,3.93,0,0,1,74.44,2a4.19,4.19,0,0,1,1.19,3.19v5.44Z"/><path class="cls-1" d="M113.24,10.68a2.46,2.46,0,0,0,.38,1.62,2.21,2.21,0,0,0,1.61.42v.58h-6.3v-.58a2.89,2.89,0,0,0,1.62-.32,1.41,1.41,0,0,0,.42-1.17V4.94a2.61,2.61,0,0,0-.79-2.05,2.67,2.67,0,0,0-1.85-.7c-1.11,0-2.23.78-3.36,2.35v5.87a3.26,3.26,0,0,0,.35,1.87c.23.3.78.44,1.64.44v.58h-6.23v-.58a2.35,2.35,0,0,0,1.6-.37,3.14,3.14,0,0,0,.37-1.94V3.65a1.94,1.94,0,0,0-.37-1.42,2.51,2.51,0,0,0-1.6-.34V1.31L104.4.93H105V3.35c1.37-1.61,2.8-2.42,4.26-2.42a4,4,0,0,1,2.82,1.13,4.17,4.17,0,0,1,1.19,3.19v5.43Z"/><path class="cls-1" d="M81.92,3.33h3.56v.8H81.92l0,6.34c0,1.4.58,2.15,1.85,2.15a3.69,3.69,0,0,0,2.46-1l.33.38a5,5,0,0,1-3.68,1.68,3.06,3.06,0,0,1-2.19-.82,3,3,0,0,1-1-2.12V4.13H77.32V3.54a7.87,7.87,0,0,0,4-3.49h.63V3.33Z"/><path class="cls-1" d="M93.18,6.14a.94.94,0,1,1-.94.94.94.94,0,0,1,.94-.94Z"/><path class="cls-1" d="M93.17,1.38c2.89,0,4.08,2.56,4.08,5.71S96,12.8,93.17,12.8,89.1,10.23,89.1,7.09s1.19-5.71,4.07-5.71Zm0-.66a6.25,6.25,0,0,1,6.6,6.37,6.6,6.6,0,0,1-13.19,0A6.25,6.25,0,0,1,93.17.72Z"/></g></g></g></svg>