<svg xmlns="http://www.w3.org/2000/svg" viewBox="0 0 141.73 19.4"><defs><style>.cls-1{fill:#fff;}</style></defs><g id="Camada_2" data-name="Camada 2"><g id="Layer_1" data-name="Layer 1"><path class="cls-1" d="M101.83,3.52a2.58,2.58,0,0,1-.29,1.3,1.87,1.87,0,0,1-.82.78,2.83,2.83,0,0,1-1.24.26H98V1.38h1.55a2.87,2.87,0,0,1,1.23.24,1.73,1.73,0,0,1,.76.73A2.47,2.47,0,0,1,101.83,3.52Zm-1.25,0a1.84,1.84,0,0,0-.11-.67.83.83,0,0,0-.33-.4,1,1,0,0,0-.55-.14h-.35V4.86h.27a1,1,0,0,0,.81-.32A1.55,1.55,0,0,0,100.58,3.56Z"/><path class="cls-1" d="M105.26,5.86H102.6V1.38h2.66v1h-1.45v.7h1.34V4h-1.34v.85h1.45Z"/><path class="cls-1" d="M110.36,4.5a1.34,1.34,0,0,1-.76,1.21,2.09,2.09,0,0,1-1,.21,4.39,4.39,0,0,1-.54,0,3,3,0,0,1-.43-.09,2.75,2.75,0,0,1-.41-.17V4.56a4.16,4.16,0,0,0,.74.28,2.82,2.82,0,0,0,.67.09.78.78,0,0,0,.29,0,.32.32,0,0,0,.17-.12.27.27,0,0,0,.06-.17.3.3,0,0,0-.08-.2,1.3,1.3,0,0,0-.26-.17L108.34,4a4.6,4.6,0,0,1-.45-.24,1.34,1.34,0,0,1-.34-.28,1,1,0,0,1-.22-.37,1.46,1.46,0,0,1-.08-.5,1.18,1.18,0,0,1,.21-.72,1.29,1.29,0,0,1,.6-.44,2.39,2.39,0,0,1,.88-.15,2.8,2.8,0,0,1,.79.1,4.63,4.63,0,0,1,.63.22l-.37.94a3.28,3.28,0,0,0-.57-.21,2.06,2.06,0,0,0-.52-.08.6.6,0,0,0-.25,0,.28.28,0,0,0-.15.1.25.25,0,0,0,0,.15.25.25,0,0,0,.08.18,1,1,0,0,0,.28.18c.12.07.3.15.52.25a3.6,3.6,0,0,1,.56.32,1.15,1.15,0,0,1,.35.41A1.29,1.29,0,0,1,110.36,4.5Z"/><path class="cls-1" d="M113.73,5.86,113.51,5h-1.46l-.22.84H110.5L112,1.36h1.61l1.48,4.5Zm-2.25-4.81a2,2,0,0,1,.08-.48,1.13,1.13,0,0,1,.15-.33A.61.61,0,0,1,112,.06a.73.73,0,0,1,.3,0,.77.77,0,0,1,.25,0l.27.1.26.11a.77.77,0,0,0,.25,0,.21.21,0,0,0,.12,0,.39.39,0,0,0,.1-.25h.56a1.43,1.43,0,0,1-.25.81.65.65,0,0,1-.51.24A.86.86,0,0,1,113,1l-.28-.1-.26-.1a.69.69,0,0,0-.24-.05.21.21,0,0,0-.12.05.55.55,0,0,0-.1.25Zm1.78,3-.19-.73c0-.08,0-.2-.09-.34l-.12-.46q-.06-.24-.09-.39c0,.1,0,.22-.07.37s-.07.3-.11.45-.06.27-.09.37l-.19.73Z"/><path class="cls-1" d="M119.66,3.61a3.45,3.45,0,0,1-.12.94,2,2,0,0,1-.39.73,1.66,1.66,0,0,1-.68.47,2.62,2.62,0,0,1-1,.17,2.59,2.59,0,0,1-1-.17,1.66,1.66,0,0,1-.68-.47,1.91,1.91,0,0,1-.4-.73,3.46,3.46,0,0,1-.13-.95,2.84,2.84,0,0,1,.24-1.21,1.68,1.68,0,0,1,.71-.8,2.42,2.42,0,0,1,1.24-.28,2.4,2.4,0,0,1,1.24.28,1.72,1.72,0,0,1,.71.8A3.06,3.06,0,0,1,119.66,3.61Zm-3.08,0a2.43,2.43,0,0,0,.09.7.88.88,0,0,0,.29.44.94.94,0,0,0,1.05,0,.82.82,0,0,0,.29-.44,2.43,2.43,0,0,0,.09-.7,1.9,1.9,0,0,0-.21-1,.73.73,0,0,0-.69-.35.8.8,0,0,0-.53.16.86.86,0,0,0-.29.45A2.43,2.43,0,0,0,116.58,3.61Z"/><path class="cls-1" d="M123.42,1.38a1.88,1.88,0,0,1,1.28.37,1.31,1.31,0,0,1,.42,1,2.33,2.33,0,0,1-.08.59,1.34,1.34,0,0,1-.81.85,2.15,2.15,0,0,1-.81.13h-.34V5.86h-1.21V1.38Zm0,1h-.31v1h.24a.88.88,0,0,0,.29,0,.48.48,0,0,0,.22-.18.58.58,0,0,0,.08-.32.45.45,0,0,0-.13-.34A.5.5,0,0,0,123.39,2.35Z"/><path class="cls-1" d="M128.27,5.86,128.05,5H126.6l-.23.84H125l1.46-4.5h1.62l1.48,4.5ZM127.8,4l-.19-.73c0-.08,0-.2-.09-.34l-.12-.46c0-.16-.06-.29-.08-.39,0,.1,0,.22-.08.37s-.07.3-.11.45-.06.27-.09.37l-.19.73Z"/><path class="cls-1" d="M133.57,1.38V4.07a2.15,2.15,0,0,1-.21,1,1.47,1.47,0,0,1-.64.64,2.33,2.33,0,0,1-1.08.23,1.91,1.91,0,0,1-1.41-.48,1.75,1.75,0,0,1-.49-1.34V1.38H131V4a1.06,1.06,0,0,0,.18.69.61.61,0,0,0,.52.22.79.79,0,0,0,.4-.09.58.58,0,0,0,.23-.3,1.56,1.56,0,0,0,.07-.52V1.38Z"/><path class="cls-1" d="M134.2,5.86V1.38h1.21v3.5h1.73v1Z"/><path class="cls-1" d="M141.73,3.61a3.45,3.45,0,0,1-.12.94,1.84,1.84,0,0,1-.39.73,1.66,1.66,0,0,1-.68.47,2.62,2.62,0,0,1-1,.17,2.59,2.59,0,0,1-1-.17,1.66,1.66,0,0,1-.68-.47,1.91,1.91,0,0,1-.4-.73,3.46,3.46,0,0,1-.13-.95,2.84,2.84,0,0,1,.24-1.21,1.68,1.68,0,0,1,.71-.8,2.91,2.91,0,0,1,2.49,0,1.76,1.76,0,0,1,.7.8A3.06,3.06,0,0,1,141.73,3.61Zm-3.08,0a2.43,2.43,0,0,0,.09.7.88.88,0,0,0,.29.44.81.81,0,0,0,.52.16.83.83,0,0,0,.54-.16.86.86,0,0,0,.28-.44,2.43,2.43,0,0,0,.09-.7,2,2,0,0,0-.2-1,.75.75,0,0,0-.7-.35.8.8,0,0,0-.53.16.86.86,0,0,0-.29.45A2.43,2.43,0,0,0,138.65,3.61Z"/><path class="cls-1" d="M53.56,1.38V4.07a2.15,2.15,0,0,1-.21,1,1.44,1.44,0,0,1-.65.64,2.26,2.26,0,0,1-1.07.23,1.91,1.91,0,0,1-1.41-.48,1.75,1.75,0,0,1-.49-1.34V1.38H51V4a1.06,1.06,0,0,0,.17.69.64.64,0,0,0,.53.22.79.79,0,0,0,.4-.09.58.58,0,0,0,.23-.3A1.56,1.56,0,0,0,52.35,4V1.38Z"/><path class="cls-1" d="M58.73,5.86H57.14L55.51,2.7h0c0,.1,0,.21,0,.35s0,.27,0,.41,0,.26,0,.38v2H54.47V1.38h1.58l1.63,3.11h0a3.28,3.28,0,0,1,0-.34c0-.13,0-.26,0-.4s0-.25,0-.35v-2h1.08Z"/><path class="cls-1" d="M59.66,5.86V1.38h1.22V5.86Z"/><path class="cls-1" d="M65.68,1.38,64.21,5.86H62.79L61.32,1.38h1.37l.6,2.27a2.68,2.68,0,0,1,.08.33l.09.4a2.51,2.51,0,0,1,0,.32c0-.08,0-.19,0-.32s.05-.26.07-.4.06-.24.08-.32l.62-2.28Z"/><path class="cls-1" d="M68.79,5.86H66.13V1.38h2.66v1H67.34v.7h1.34V4H67.34v.85h1.45Z"/><path class="cls-1" d="M71,1.38a3.19,3.19,0,0,1,1,.14,1.2,1.2,0,0,1,.61.45,1.21,1.21,0,0,1,.21.73,1.18,1.18,0,0,1-.1.5,1.25,1.25,0,0,1-.26.4,1.74,1.74,0,0,1-.4.3l1.3,2H72l-1-1.63h-.31V5.86H69.53V1.38Zm0,.91h-.24v1H71a.81.81,0,0,0,.46-.13.52.52,0,0,0,.17-.44.46.46,0,0,0-.14-.34A.77.77,0,0,0,71,2.29Z"/><path class="cls-1" d="M76.67,4.5a1.42,1.42,0,0,1-.18.69,1.44,1.44,0,0,1-.57.52,2.13,2.13,0,0,1-1,.21,4.11,4.11,0,0,1-.53,0A2.5,2.5,0,0,1,74,5.8a2.85,2.85,0,0,1-.42-.17V4.56a4.47,4.47,0,0,0,.74.28,2.88,2.88,0,0,0,.67.09.87.87,0,0,0,.3,0,.43.43,0,0,0,.17-.12.34.34,0,0,0,0-.17.3.3,0,0,0-.08-.2,1.3,1.3,0,0,0-.26-.17L74.65,4l-.45-.24a1.34,1.34,0,0,1-.34-.28,1,1,0,0,1-.22-.37,1.46,1.46,0,0,1-.08-.5,1.12,1.12,0,0,1,.22-.72,1.26,1.26,0,0,1,.59-.44,2.42,2.42,0,0,1,.88-.15,2.75,2.75,0,0,1,.79.1,4.63,4.63,0,0,1,.63.22l-.37.94a3.28,3.28,0,0,0-.57-.21,2,2,0,0,0-.51-.08.65.65,0,0,0-.26,0,.28.28,0,0,0-.15.1.25.25,0,0,0,0,.15.23.23,0,0,0,.09.18.78.78,0,0,0,.27.18l.52.25a3.19,3.19,0,0,1,.56.32,1.15,1.15,0,0,1,.35.41A1.29,1.29,0,0,1,76.67,4.5Z"/><path class="cls-1" d="M77.33,5.86V1.38h1.21V5.86Z"/><path class="cls-1" d="M83.28,3.52a2.58,2.58,0,0,1-.3,1.3,1.82,1.82,0,0,1-.82.78,2.8,2.8,0,0,1-1.24.26H79.47V1.38H81a2.84,2.84,0,0,1,1.23.24,1.73,1.73,0,0,1,.76.73A2.35,2.35,0,0,1,83.28,3.52ZM82,3.56a1.84,1.84,0,0,0-.11-.67.78.78,0,0,0-.33-.4A1,1,0,0,0,81,2.35h-.36V4.86H81a1,1,0,0,0,.81-.32A1.55,1.55,0,0,0,82,3.56Z"/><path class="cls-1" d="M86.79,5.86,86.57,5H85.11l-.22.84H83.56L85,1.36h1.61l1.48,4.5ZM86.32,4l-.2-.73c0-.08-.05-.2-.08-.34l-.12-.46q-.06-.24-.09-.39l-.07.37c0,.15-.07.3-.11.45s-.07.27-.09.37l-.2.73Z"/><path class="cls-1" d="M92.36,3.52a2.58,2.58,0,0,1-.29,1.3,1.87,1.87,0,0,1-.82.78A2.83,2.83,0,0,1,90,5.86H88.56V1.38h1.55a2.87,2.87,0,0,1,1.23.24,1.73,1.73,0,0,1,.76.73A2.47,2.47,0,0,1,92.36,3.52Zm-1.25,0A1.84,1.84,0,0,0,91,2.89a.83.83,0,0,0-.33-.4,1,1,0,0,0-.55-.14h-.35V4.86H90a1,1,0,0,0,.81-.32A1.55,1.55,0,0,0,91.11,3.56Z"/><path class="cls-1" d="M95.79,5.86H93.13V1.38h2.66v1H94.34v.7h1.34V4H94.34v.85h1.45Z"/><path class="cls-1" d="M51.24,8.43a1.85,1.85,0,0,1,1.27.36,1.26,1.26,0,0,1,.4,1,1.67,1.67,0,0,1-.09.55,1.18,1.18,0,0,1-.3.47,1.28,1.28,0,0,1-.54.31,2.47,2.47,0,0,1-.83.12h-.47v1.68h-.74V8.43ZM51.19,9h-.51v1.59h.4a1.7,1.7,0,0,0,.59-.09.72.72,0,0,0,.37-.26.8.8,0,0,0,.12-.47.72.72,0,0,0-.23-.58A1.22,1.22,0,0,0,51.19,9Z"/><path class="cls-1" d="M55.1,8.43a2.87,2.87,0,0,1,1,.14,1.13,1.13,0,0,1,.56.43,1.31,1.31,0,0,1,.19.74,1.19,1.19,0,0,1-.12.56,1.12,1.12,0,0,1-.32.39,2.67,2.67,0,0,1-.43.25l1.27,2h-.83l-1.08-1.8h-.73v1.8h-.73V8.43Zm-.05.62h-.48v1.47h.51a1.16,1.16,0,0,0,.75-.2.68.68,0,0,0,.23-.56.6.6,0,0,0-.25-.55A1.39,1.39,0,0,0,55.05,9.05Z"/><path class="cls-1" d="M61.87,10.67a3.16,3.16,0,0,1-.13.95,1.91,1.91,0,0,1-.39.73,1.73,1.73,0,0,1-.65.47,2.36,2.36,0,0,1-.92.17,2.46,2.46,0,0,1-.94-.17,1.73,1.73,0,0,1-.65-.47,2.18,2.18,0,0,1-.39-.74,3.1,3.1,0,0,1-.13-.94,3.05,3.05,0,0,1,.23-1.22,1.76,1.76,0,0,1,.7-.8,2.53,2.53,0,0,1,2.35,0,1.74,1.74,0,0,1,.69.8A2.89,2.89,0,0,1,61.87,10.67Zm-3.42,0a2.43,2.43,0,0,0,.14.9,1.17,1.17,0,0,0,.43.58,1.29,1.29,0,0,0,.76.21,1.23,1.23,0,0,0,.75-.21,1.12,1.12,0,0,0,.43-.58,2.66,2.66,0,0,0,.14-.9,2.17,2.17,0,0,0-.31-1.23,1.15,1.15,0,0,0-1-.45,1.36,1.36,0,0,0-.76.2,1.22,1.22,0,0,0-.43.58A2.43,2.43,0,0,0,58.45,10.67ZM60.82,7v.06a1.83,1.83,0,0,1-.2.21,3.44,3.44,0,0,1-.27.27l-.29.26L59.8,8h-.48V7.94l.22-.28c.08-.11.17-.22.25-.34A3.15,3.15,0,0,0,60,7Z"/><path class="cls-1" d="M62.5,11.54v-.61h1.59v.61Z"/><path class="cls-1" d="M66.19,8.43a2.87,2.87,0,0,1,1,.14,1.13,1.13,0,0,1,.56.43,1.31,1.31,0,0,1,.19.74,1.19,1.19,0,0,1-.12.56,1,1,0,0,1-.33.39,2.22,2.22,0,0,1-.42.25l1.27,2h-.83l-1.08-1.8h-.73v1.8h-.73V8.43Zm0,.62h-.48v1.47h.51a1.16,1.16,0,0,0,.75-.2.68.68,0,0,0,.23-.56.6.6,0,0,0-.25-.55A1.39,1.39,0,0,0,66.14,9.05Z"/><path class="cls-1" d="M71.52,12.92H69V8.43h2.54v.62H69.71v1.22h1.7v.62h-1.7V12.3h1.81Z"/><path class="cls-1" d="M72.52,12.92V8.43h.74v4.49Z"/><path class="cls-1" d="M76,12.92h-.74V9.06H74V8.43h3.37v.63H76Z"/><path class="cls-1" d="M82,10.67a3.16,3.16,0,0,1-.13.95,1.91,1.91,0,0,1-.39.73,1.73,1.73,0,0,1-.65.47A2.4,2.4,0,0,1,80,13a2.46,2.46,0,0,1-.94-.17,1.73,1.73,0,0,1-.65-.47,2.18,2.18,0,0,1-.39-.74,3.1,3.1,0,0,1-.13-.94,3.05,3.05,0,0,1,.23-1.22,1.76,1.76,0,0,1,.7-.8,2.53,2.53,0,0,1,2.35,0,1.74,1.74,0,0,1,.69.8A2.89,2.89,0,0,1,82,10.67Zm-3.42,0a2.43,2.43,0,0,0,.14.9,1.17,1.17,0,0,0,.43.58,1.29,1.29,0,0,0,.76.21,1.26,1.26,0,0,0,.75-.21,1.12,1.12,0,0,0,.43-.58,2.66,2.66,0,0,0,.14-.9A2.09,2.09,0,0,0,81,9.44,1.13,1.13,0,0,0,80,9a1.36,1.36,0,0,0-.76.2,1.22,1.22,0,0,0-.43.58A2.43,2.43,0,0,0,78.62,10.67Z"/><path class="cls-1" d="M84.3,8.43a2.87,2.87,0,0,1,1,.14,1.16,1.16,0,0,1,.57.43,1.4,1.4,0,0,1,.18.74,1.19,1.19,0,0,1-.12.56,1.12,1.12,0,0,1-.32.39,2.3,2.3,0,0,1-.43.25l1.28,2h-.84l-1.08-1.8h-.72v1.8H83V8.43Zm0,.62h-.47v1.47h.51a1.13,1.13,0,0,0,.74-.2.65.65,0,0,0,.23-.56A.62.62,0,0,0,85,9.21,1.43,1.43,0,0,0,84.25,9.05Z"/><path class="cls-1" d="M87.09,12.92V8.43h.74v4.49Z"/><path class="cls-1" d="M91.82,12.92l-.43-1.24H89.67l-.44,1.24h-.78l1.67-4.51h.82l1.67,4.51ZM91.19,11l-.42-1.23c0-.05,0-.12-.07-.22s-.06-.2-.1-.3,0-.19-.07-.26c0,.09,0,.18-.08.29s-.06.2-.08.29a2,2,0,0,1-.07.2L89.87,11Z"/><path class="cls-1" d="M98.54,10.63a2.57,2.57,0,0,1-.28,1.27,1.8,1.8,0,0,1-.82.77,3,3,0,0,1-1.29.25H94.9V8.43h1.38a2.73,2.73,0,0,1,1.2.25,1.88,1.88,0,0,1,.79.74A2.49,2.49,0,0,1,98.54,10.63Zm-.76,0a2,2,0,0,0-.18-.91,1.05,1.05,0,0,0-.51-.53A1.73,1.73,0,0,0,96.26,9h-.62v3.27h.52a1.59,1.59,0,0,0,1.21-.42A1.69,1.69,0,0,0,97.78,10.66Z"/><path class="cls-1" d="M102.08,12.92H99.54V8.43h2.54v.62h-1.8v1.22H102v.62h-1.69V12.3h1.8Z"/><path class="cls-1" d="M106.66,9a1.32,1.32,0,0,0-.57.12,1.18,1.18,0,0,0-.43.34,1.4,1.4,0,0,0-.27.53,2.53,2.53,0,0,0-.09.7,2.42,2.42,0,0,0,.15.9,1.14,1.14,0,0,0,.45.58,1.36,1.36,0,0,0,.76.2,2.51,2.51,0,0,0,.55-.06,3.11,3.11,0,0,0,.56-.15v.63a3.47,3.47,0,0,1-.55.16,4.09,4.09,0,0,1-.65.05,2.12,2.12,0,0,1-1.14-.29,1.73,1.73,0,0,1-.67-.81,3,3,0,0,1-.23-1.21,2.85,2.85,0,0,1,.15-.94,2.09,2.09,0,0,1,.41-.73,1.8,1.8,0,0,1,.67-.47,2.14,2.14,0,0,1,.91-.17,3,3,0,0,1,.66.07,2.46,2.46,0,0,1,.61.22l-.26.6-.49-.19A1.84,1.84,0,0,0,106.66,9Z"/><path class="cls-1" d="M112.3,8.43v2.91a1.8,1.8,0,0,1-.2.84,1.48,1.48,0,0,1-.6.59,2.16,2.16,0,0,1-1,.22,1.78,1.78,0,0,1-1.31-.46,1.62,1.62,0,0,1-.45-1.2V8.43h.74v2.83a1.16,1.16,0,0,0,.26.83,1.07,1.07,0,0,0,.79.27,1.15,1.15,0,0,0,.59-.13.72.72,0,0,0,.34-.37,1.57,1.57,0,0,0,.11-.6V8.43Z"/><path class="cls-1" d="M113.47,12.92V8.43h.74V12.3h1.91v.62Z"/><path class="cls-1" d="M118.48,12.92h-.74V9.06h-1.31V8.43h3.36v.63h-1.31Z"/><path class="cls-1" d="M124,8.43v2.91a1.8,1.8,0,0,1-.2.84,1.42,1.42,0,0,1-.6.59,2.14,2.14,0,0,1-1,.22,1.79,1.79,0,0,1-1.32-.46,1.62,1.62,0,0,1-.45-1.2V8.43h.74v2.83a1.16,1.16,0,0,0,.26.83,1.07,1.07,0,0,0,.79.27,1.15,1.15,0,0,0,.59-.13.72.72,0,0,0,.34-.37,1.4,1.4,0,0,0,.11-.6V8.43Z"/><path class="cls-1" d="M126.48,8.43a3,3,0,0,1,1,.14A1.13,1.13,0,0,1,128,9a1.4,1.4,0,0,1,.19.74,1.08,1.08,0,0,1-.13.56,1.12,1.12,0,0,1-.32.39,2,2,0,0,1-.43.25l1.28,2h-.83l-1.09-1.8H126v1.8h-.74V8.43Zm0,.62H126v1.47h.51a1.18,1.18,0,0,0,.75-.2.68.68,0,0,0,.23-.56.6.6,0,0,0-.25-.55A1.39,1.39,0,0,0,126.43,9.05Z"/><path class="cls-1" d="M132.05,12.92l-.44-1.24h-1.72l-.44,1.24h-.78l1.67-4.51h.82l1.67,4.51ZM131.42,11,131,9.81c0-.05,0-.12-.07-.22l-.09-.3L130.75,9c0,.09-.05.18-.08.29s0,.2-.08.29-.05.16-.06.2L130.1,11Z"/><path class="cls-1" d="M52.48,19.34H49.94V14.85h2.54v.62h-1.8v1.22h1.69v.62H50.68v1.41h1.8Z"/><path class="cls-1" d="M57.69,19.34H55.15V14.85h2.54v.62h-1.8v1.22h1.69v.62H55.89v1.41h1.8Z"/><path class="cls-1" d="M62,19.34h-.84L60,17.5,58.9,19.34h-.79L59.6,17l-1.39-2.16H59l1,1.7,1-1.7h.79L60.5,17Z"/><path class="cls-1" d="M64.2,19.34h-.74V15.48H62.14v-.63h3.37v.63H64.2Z"/><path class="cls-1" d="M68.77,19.34H66.23V14.85h2.54v.62H67v1.22h1.7v.62H67v1.41h1.81Z"/><path class="cls-1" d="M73.52,19.34h-.91l-2.2-3.58h0c0,.12,0,.24,0,.38s0,.27,0,.42,0,.29,0,.43v2.35h-.67V14.85h.9l2.2,3.56h0c0-.1,0-.22,0-.36s0-.27,0-.42,0-.28,0-.42V14.85h.68Z"/><path class="cls-1" d="M77.32,18.12a1.14,1.14,0,0,1-.75,1.13,2.33,2.33,0,0,1-.87.15,3.48,3.48,0,0,1-.47,0,1.84,1.84,0,0,1-.42-.08,1.51,1.51,0,0,1-.36-.13v-.69a5.31,5.31,0,0,0,.61.22,2.59,2.59,0,0,0,.68.09,1.32,1.32,0,0,0,.48-.07.56.56,0,0,0,.37-.55.52.52,0,0,0-.1-.33,1,1,0,0,0-.33-.26,4.94,4.94,0,0,0-.54-.24,2.74,2.74,0,0,1-.42-.21,1.38,1.38,0,0,1-.36-.26,1.15,1.15,0,0,1-.25-.37A1.22,1.22,0,0,1,74.5,16a1.16,1.16,0,0,1,.18-.66,1.25,1.25,0,0,1,.52-.41,1.87,1.87,0,0,1,.78-.14,2.78,2.78,0,0,1,.66.07,3.48,3.48,0,0,1,.62.21l-.24.59a3,3,0,0,0-.53-.18,1.93,1.93,0,0,0-.53-.07,1.15,1.15,0,0,0-.4.07.63.63,0,0,0-.25.2.61.61,0,0,0-.08.3.52.52,0,0,0,.1.33.86.86,0,0,0,.3.25l.52.24a3.66,3.66,0,0,1,.63.33,1.09,1.09,0,0,1,.4.4A1.17,1.17,0,0,1,77.32,18.12Z"/><path class="cls-1" d="M81,19.34l-.44-1.25H78.85l-.44,1.25h-.78l1.67-4.51h.82l1.67,4.51Zm-2.51-4.91a1.27,1.27,0,0,1,.08-.37.72.72,0,0,1,.16-.27.63.63,0,0,1,.23-.17.66.66,0,0,1,.28,0,.58.58,0,0,1,.26,0,1.15,1.15,0,0,1,.25.12,1.27,1.27,0,0,0,.23.12.41.41,0,0,0,.21.05.32.32,0,0,0,.21-.08.68.68,0,0,0,.13-.27h.37a1,1,0,0,1-.24.65.7.7,0,0,1-.51.22.8.8,0,0,1-.26,0l-.24-.13-.23-.12a.59.59,0,0,0-.22-.05.29.29,0,0,0-.21.09.63.63,0,0,0-.12.26Zm1.88,3L80,16.23c0-.05,0-.13-.08-.22l-.09-.3c0-.1,0-.19-.07-.26,0,.09,0,.18-.08.28s-.06.2-.09.29a1.42,1.42,0,0,1-.06.21l-.43,1.23Z"/><path class="cls-1" d="M86.4,17.09a3.39,3.39,0,0,1-.13.94,2,2,0,0,1-.4.74,1.73,1.73,0,0,1-.65.47,2.75,2.75,0,0,1-1.85,0,1.68,1.68,0,0,1-.66-.48,2.13,2.13,0,0,1-.39-.73,3.52,3.52,0,0,1-.13-1,3,3,0,0,1,.23-1.21,1.82,1.82,0,0,1,.7-.8,2.15,2.15,0,0,1,1.18-.29,2.2,2.2,0,0,1,1.17.28,1.85,1.85,0,0,1,.7.81A3,3,0,0,1,86.4,17.09Zm-3.43,0a2.7,2.7,0,0,0,.14.9,1.17,1.17,0,0,0,.43.58,1.29,1.29,0,0,0,.76.21,1.23,1.23,0,0,0,.75-.21,1.12,1.12,0,0,0,.43-.58,2.47,2.47,0,0,0,.14-.9,2.13,2.13,0,0,0-.31-1.24,1.14,1.14,0,0,0-1-.44,1.27,1.27,0,0,0-.75.2,1.13,1.13,0,0,0-.44.58A2.66,2.66,0,0,0,83,17.09Z"/><path class="cls-1" d="M92.59,14.85v2.91a1.8,1.8,0,0,1-.2.84,1.42,1.42,0,0,1-.6.59,2.15,2.15,0,0,1-1,.21A1.79,1.79,0,0,1,89.47,19,1.63,1.63,0,0,1,89,17.74V14.85h.74v2.83a1.18,1.18,0,0,0,.26.83,1.07,1.07,0,0,0,.79.27,1.26,1.26,0,0,0,.59-.13.74.74,0,0,0,.34-.38,1.32,1.32,0,0,0,.11-.59V14.85Z"/><path class="cls-1" d="M97.51,19.34H96.6l-2.19-3.58h0c0,.12,0,.24,0,.38s0,.27,0,.42,0,.29,0,.43v2.35h-.67V14.85h.9l2.2,3.56h0c0-.1,0-.22,0-.36s0-.27,0-.42,0-.28,0-.42V14.85h.67Z"/><path class="cls-1" d="M98.72,19.34V14.85h.74v4.49Z"/><path class="cls-1" d="M104,14.85l-1.57,4.49h-.78l-1.57-4.49h.76l1,2.81c0,.09.06.18.09.3s.07.24.09.35a2.71,2.71,0,0,1,.07.32c0-.09,0-.2.07-.32s.06-.23.1-.35a2.82,2.82,0,0,1,.09-.3l1-2.81Z"/><path class="cls-1" d="M107.17,19.34h-2.54V14.85h2.54v.62h-1.81v1.22h1.7v.62h-1.7v1.41h1.81Z"/><path class="cls-1" d="M109.43,14.85a2.87,2.87,0,0,1,1,.14,1.2,1.2,0,0,1,.57.43,1.37,1.37,0,0,1,.18.74,1.19,1.19,0,0,1-.12.56,1.12,1.12,0,0,1-.32.39,2,2,0,0,1-.43.24l1.27,2h-.83l-1.08-1.8h-.72v1.8h-.74V14.85Zm-.05.61h-.47v1.47h.51a1.13,1.13,0,0,0,.74-.19.69.69,0,0,0,.23-.56.6.6,0,0,0-.25-.55A1.35,1.35,0,0,0,109.38,15.46Z"/><path class="cls-1" d="M114.81,18.12a1.14,1.14,0,0,1-.75,1.13,2.33,2.33,0,0,1-.87.15,3.48,3.48,0,0,1-.47,0,1.84,1.84,0,0,1-.42-.08,1.78,1.78,0,0,1-.37-.13v-.69a6.32,6.32,0,0,0,.62.22,2.59,2.59,0,0,0,.68.09,1.32,1.32,0,0,0,.48-.07.56.56,0,0,0,.37-.55.47.47,0,0,0-.11-.33.86.86,0,0,0-.32-.26,4.94,4.94,0,0,0-.54-.24,2.74,2.74,0,0,1-.42-.21,1.38,1.38,0,0,1-.36-.26,1.15,1.15,0,0,1-.25-.37A1.22,1.22,0,0,1,112,16a1.16,1.16,0,0,1,.18-.66,1.25,1.25,0,0,1,.52-.41,1.87,1.87,0,0,1,.78-.14,2.78,2.78,0,0,1,.66.07,3.48,3.48,0,0,1,.62.21l-.24.59a3,3,0,0,0-.53-.18,1.93,1.93,0,0,0-.53-.07,1.15,1.15,0,0,0-.4.07.63.63,0,0,0-.25.2.61.61,0,0,0-.08.3.52.52,0,0,0,.1.33.86.86,0,0,0,.3.25c.13.07.31.15.52.24a3.66,3.66,0,0,1,.63.33,1.09,1.09,0,0,1,.4.4A1.17,1.17,0,0,1,114.81,18.12Z"/><path class="cls-1" d="M115.71,19.34V14.85h.74v4.49Z"/><path class="cls-1" d="M119.22,19.34h-.74V15.48h-1.32v-.63h3.37v.63h-1.31Z"/><path class="cls-1" d="M124,19.34l-.44-1.25h-1.72l-.44,1.25h-.77l1.67-4.51h.81l1.67,4.51Zm-.63-1.88L123,16.23c0-.05,0-.13-.07-.22l-.09-.3-.08-.26c0,.09,0,.18-.07.28s-.06.2-.09.29a1.89,1.89,0,0,0-.06.21l-.43,1.23Zm.38-4v.06l-.2.21a3.38,3.38,0,0,1-.27.26l-.29.26-.27.22h-.48v-.08l.23-.28.24-.34.21-.31Z"/><path class="cls-1" d="M126.7,14.85a2.87,2.87,0,0,1,1,.14,1.13,1.13,0,0,1,.56.43,1.29,1.29,0,0,1,.19.74,1.19,1.19,0,0,1-.12.56,1.12,1.12,0,0,1-.32.39,2,2,0,0,1-.43.24l1.27,2H128l-1.08-1.8h-.73v1.8h-.73V14.85Zm0,.61h-.48v1.47h.51a1.16,1.16,0,0,0,.75-.19.69.69,0,0,0,.23-.56.6.6,0,0,0-.25-.55A1.38,1.38,0,0,0,126.65,15.46Z"/><path class="cls-1" d="M129.49,19.34V14.85h.73v4.49Z"/><path class="cls-1" d="M134.22,19.34l-.44-1.25h-1.72l-.43,1.25h-.78l1.67-4.51h.82L135,19.34Zm-.63-1.88-.43-1.23c0-.05,0-.13-.07-.22l-.09-.3c0-.1-.05-.19-.08-.26,0,.09,0,.18-.07.28s-.06.2-.09.29,0,.16-.06.21l-.43,1.23Z"/><g id="USP"><path class="cls-1" d="M30.3,13.84V12.52L26.05,8.36,22.84,5.2l-.42.42L22,6.05l.43.42L26.05,10l3,3v2.14a3,3,0,0,1-3,3H18.78a3,3,0,0,1-3-3H14.53a3,3,0,0,1-3,3H4.24a3,3,0,0,1-3-3V2.66H7.27V15.13H8.49V2.66h6V1.46H0V15.15a4.2,4.2,0,0,0,4.24,4.16h7.28a4.25,4.25,0,0,0,3.33-1.59c.1-.14.2-.28.29-.43A4.39,4.39,0,0,0,17,18.91a4.24,4.24,0,0,0,1.82.4h7.27a4.21,4.21,0,0,0,4.24-4.17Z"/><path class="cls-1" d="M40.59,1.46H33.32a4.24,4.24,0,0,0-3,1.25,4.11,4.11,0,0,0-.61.78,4.26,4.26,0,0,0-3.64-2H18.78A4,4,0,0,0,17,1.9a4.35,4.35,0,0,0-2.11,2.22,3.75,3.75,0,0,0-.31,1.51V8.27l.31.29L17,10.64l1.82,1.79L22,15.59l.43-.43.42-.42-.42-.42-3.64-3.58L17,9l-1.22-1.2V5.63A2.94,2.94,0,0,1,17,3.25a3.05,3.05,0,0,1,1.82-.6h7.27a3,3,0,0,1,3,3h1.21a.28.28,0,0,1,0-.09,3,3,0,0,1,3-2.88h7.27a3,3,0,0,1,3,3v6.54h-6V5.63H36.35V18.12H30.29v1.19h7.27V13.37h7.26V5.63a4.21,4.21,0,0,0-4.23-4.17"/></g></g></g></svg>