<svg xmlns="http://www.w3.org/2000/svg" xmlns:xlink="http://www.w3.org/1999/xlink" viewBox="0 0 611.09 200"><defs><style>.cls-1{fill:none;}.cls-2{clip-path:url(#clip-path);}.cls-3{fill:#fff;}</style><clipPath id="clip-path" transform="translate(-21.28 -25)"><rect class="cls-1" width="668" height="250"/></clipPath></defs><g id="Camada_2" data-name="Camada 2"><g id="Camada_1-2" data-name="Camada 1"><g class="cls-2"><g class="cls-2"><path class="cls-3" d="M255.64,98.83h12.83l6.83,18.55c.84,2.51,1.53,5.3,2.37,8H278c.83-2.65,1.53-5.44,2.37-8l6.55-18.55H299.7v45.32H288.82V130.77c0-4.61,1-11.65,1.54-16.18h-.28l-3.77,10.88-5.57,15h-6.42l-5.58-15-3.62-10.88h-.28c.56,4.53,1.53,11.57,1.53,16.18v13.38H255.64Z" transform="translate(-21.28 -25)"/><path class="cls-3" d="M307.36,134.25c0-7.25,5.58-11.29,19-12.69-.28-2.51-1.82-3.62-4.88-3.62-2.51,0-5.16,1-8.79,2.93l-4.18-7.81a29.36,29.36,0,0,1,15.34-4.6c9.06,0,14.5,4.88,14.5,16.31v19.38h-9.76l-.84-3.34h-.28c-2.79,2.51-5.85,4.18-9.62,4.18-6.55,0-10.46-5-10.46-10.74m19-.83v-4.75c-5.72.84-7.53,2.65-7.53,4.61,0,1.6,1.11,2.51,3.21,2.51s3.06-1,4.32-2.37" transform="translate(-21.28 -25)"/><path class="cls-3" d="M346.12,109.29h9.77l.83,6H357c2.58-4.74,6.48-6.83,9.9-6.83a10.33,10.33,0,0,1,4.32.69l-2,10.32a16.35,16.35,0,0,0-3.9-.56c-2.51,0-5.58,1.54-7.25,5.86v19.38h-12Z" transform="translate(-21.28 -25)"/><path class="cls-3" d="M374.57,99c0-3.48,2.79-6,6.69-6S388,95.49,388,99s-2.78,6-6.69,6-6.69-2.51-6.69-6m.7,10.32h12v34.86h-12Z" transform="translate(-21.28 -25)"/><path class="cls-3" d="M404.4,98.83h14.51l13.8,45.32H420l-5.16-22c-1.11-4.32-2.23-9.83-3.34-14.36h-.28c-1,4.6-2.09,10-3.21,14.36l-5.16,22H390.6Zm-3.9,26.43h22.17v9.27H400.5Z" transform="translate(-21.28 -25)"/><path class="cls-3" d="M436.06,109.29h9.76l.83,4.19h.28c2.79-2.66,6.28-5,11-5,7.67,0,10.87,5.57,10.87,14.22v21.47h-12V124.21c0-4.46-1.11-5.58-3.48-5.58s-3.49,1-5.3,2.65v22.87h-12Z" transform="translate(-21.28 -25)"/><path class="cls-3" d="M478.16,130.77V118.63h-4.6v-8.92l5.3-.42,1.39-9.06h9.9v9.06h8v9.34h-8v11.93c0,3.83,2,5.09,4.19,5.09a10.06,10.06,0,0,0,3.07-.56l1.81,8.64A26.27,26.27,0,0,1,491,145c-9.06,0-12.83-5.72-12.83-14.22" transform="translate(-21.28 -25)"/><path class="cls-3" d="M501.31,126.72c0-11.57,8.36-18.27,17.29-18.27s17.29,6.7,17.29,18.27S527.52,145,518.6,145s-17.29-6.69-17.29-18.27m22.31,0c0-5.3-1.4-8.64-5-8.64s-5,3.34-5,8.64,1.39,8.65,5,8.65,5-3.35,5-8.65" transform="translate(-21.28 -25)"/><path class="cls-3" d="M542.16,109.29h9.76l.84,4.19H553c2.79-2.66,6.27-5,11-5,7.67,0,10.88,5.57,10.88,14.22v21.47h-12V124.21c0-4.46-1.12-5.58-3.49-5.58s-3.49,1-5.3,2.65v22.87h-12Z" transform="translate(-21.28 -25)"/><path class="cls-3" d="M582,99c0-3.48,2.79-6,6.7-6s6.69,2.51,6.69,6-2.79,6-6.69,6-6.7-2.51-6.7-6m.7,10.32h12v34.86h-12Z" transform="translate(-21.28 -25)"/><path class="cls-3" d="M601.41,134.25c0-7.25,5.58-11.29,19-12.69-.28-2.51-1.81-3.62-4.88-3.62-2.51,0-5.16,1-8.79,2.93l-4.18-7.81a29.36,29.36,0,0,1,15.34-4.6c9.06,0,14.5,4.88,14.5,16.31v19.38h-9.76l-.84-3.34h-.28c-2.78,2.51-5.85,4.18-9.62,4.18-6.55,0-10.46-5-10.46-10.74m19-.83v-4.75c-5.72.84-7.53,2.65-7.53,4.61,0,1.6,1.11,2.51,3.21,2.51s3.06-1,4.32-2.37" transform="translate(-21.28 -25)"/><path class="cls-3" d="M343.46,164.45a79.08,79.08,0,0,1-13.82,18.4c-15.72,15.72-34.88,23.77-57.49,23.77-18.24,0-34.52-5.24-48.36-15.54l-11.21,15.36C229.69,218.83,249.69,225,272.15,225c28,0,51.35-9.58,70.89-28.74a99.85,99.85,0,0,0,21.79-31.81ZM343,54.12C323.5,34.58,300.14,25,272.15,25s-52.1,9.58-71.64,29.12l-.14.14.18.22L213,68.54c.43-.48.89-.93,1.35-1.39,15.7-15.72,35.24-23.76,57.84-23.76s41.77,8,57.49,23.76a79.18,79.18,0,0,1,14.24,19.2h21.27A97.1,97.1,0,0,0,343,54.12" transform="translate(-21.28 -25)"/><path class="cls-3" d="M50.21,78.85V97.4h-4V78.85c0-5.38-3-8.53-8.22-8.53-5.8,0-9.79,3.57-9.79,11.25V97.4h-4V67.18h4v4.71a11.13,11.13,0,0,1,10.15-5.44c7.32,0,11.85,4.84,11.85,12.4" transform="translate(-21.28 -25)"/><path class="cls-3" d="M79.23,67.18h4V97.4h-4V92.69q-3.35,5.44-10.15,5.44c-7.32,0-11.85-4.84-11.85-12.39V67.18h4V85.74c0,5.38,3,8.52,8.22,8.52,5.8,0,9.79-3.57,9.79-11.24ZM76.75,55.09,71,63H67.08l4.84-7.86Z" transform="translate(-21.28 -25)"/><path class="cls-3" d="M94.41,93.6a15.54,15.54,0,0,1-4.53-11.31,15.59,15.59,0,0,1,15.89-15.84c6,0,11.07,3.09,13.24,7.92l-3.26,1.88c-1.63-3.63-5.44-5.93-10-5.93a11.36,11.36,0,0,0-8.46,3.51,11.53,11.53,0,0,0-3.44,8.46,11.77,11.77,0,0,0,3.44,8.53,11.57,11.57,0,0,0,8.46,3.44A11.36,11.36,0,0,0,116,88.34l3.33,1.93a15,15,0,0,1-13.55,7.86A15.45,15.45,0,0,1,94.41,93.6" transform="translate(-21.28 -25)"/><rect class="cls-3" x="103.78" y="28.27" width="3.99" height="44.13"/><path class="cls-3" d="M162.3,71.23a16.35,16.35,0,0,1,4.17,11.18c0,.43-.06,1.09-.12,1.88H139.81c.79,6.1,5.56,10,12,10,4.6,0,8-2.05,9.73-5.14l3.51,2.06c-2.66,4.29-7.44,6.95-13.3,6.95a15.74,15.74,0,0,1-11.61-4.47,15.45,15.45,0,0,1-4.47-11.37A15.45,15.45,0,0,1,140.11,71a15.19,15.19,0,0,1,11.37-4.54,13.51,13.51,0,0,1,10.82,4.78m-22.49,9.19h22.55A11.25,11.25,0,0,0,158.67,73a10.81,10.81,0,0,0-7.19-2.66,11.29,11.29,0,0,0-11.67,10.1" transform="translate(-21.28 -25)"/><path class="cls-3" d="M186.91,98.13A15.62,15.62,0,0,1,175.6,93.6,15.36,15.36,0,0,1,171,82.29a15.09,15.09,0,0,1,4.59-11.24,15.4,15.4,0,0,1,11.31-4.6,15.81,15.81,0,0,1,15.9,15.84,15.69,15.69,0,0,1-15.9,15.84m0-3.87a11.57,11.57,0,0,0,8.46-3.44,11.77,11.77,0,0,0,3.45-8.53,11.54,11.54,0,0,0-3.45-8.46,12,12,0,0,0-16.93,0A11.57,11.57,0,0,0,175,82.29a11.81,11.81,0,0,0,3.44,8.53,11.57,11.57,0,0,0,8.47,3.44" transform="translate(-21.28 -25)"/><polygon class="cls-3" points="25.91 84.63 25.91 115.37 21.77 115.37 21.77 92.95 14.38 115.37 11.61 115.37 4.22 92.95 4.22 115.37 0.08 115.37 0.08 84.63 5.38 84.63 13.02 107.6 20.62 84.63 25.91 84.63"/><path class="cls-3" d="M53.77,109.63h4.1v19.9c0,4.27,2.34,7.3,6.78,7.3s6.75-3,6.75-7.3v-19.9h4.14v20.24c0,6.28-3.93,10.84-10.89,10.84s-10.88-4.56-10.88-10.84Z" transform="translate(-21.28 -25)"/><path class="cls-3" d="M84,130.08c1.5,4.66,4,6.79,8,6.79,3.16,0,5.38-1.71,5.38-4.27a3.71,3.71,0,0,0-.86-2.39c-1.15-1.41-2.52-2.09-5.55-3.63a38.19,38.19,0,0,1-4.48-2.52,8.82,8.82,0,0,1-4.14-7.43c0-4.4,3.46-7.34,8.49-7.34,4.57,0,7.69,2.22,9.36,6.7l-3.85,1.33c-1-2.82-2.86-4.23-5.46-4.23s-4.23,1.45-4.23,3.63a4.15,4.15,0,0,0,.85,2.56c1.2,1.41,2.65,2.18,5.68,3.67a50.21,50.21,0,0,1,4.4,2.44,8.38,8.38,0,0,1,4.06,7.13c0,5-3.85,8.2-9.78,8.2s-9.65-3.12-11.66-9.4Z" transform="translate(-21.28 -25)"/><polygon class="cls-3" points="104.26 111.7 104.26 115.37 85.77 115.37 85.77 84.63 103.58 84.63 103.58 88.3 89.91 88.3 89.91 99.57 101.57 99.57 101.57 103.25 89.91 103.25 89.91 111.7 104.26 111.7"/><path class="cls-3" d="M130.45,109.63h4.1v19.9c0,4.27,2.35,7.3,6.79,7.3s6.74-3,6.74-7.3v-19.9h4.15v20.24c0,6.28-3.93,10.84-10.89,10.84s-10.89-4.56-10.89-10.84Z" transform="translate(-21.28 -25)"/><path class="cls-3" d="M175.15,140.37H168.7V109.63h6.45c8.16,0,13.66,6.23,13.66,15.37s-5.5,15.37-13.66,15.37m-.3-27.07h-2v23.4h2c5.81,0,9.65-4.7,9.65-11.7s-3.84-11.7-9.65-11.7" transform="translate(-21.28 -25)"/><path class="cls-3" d="M207.17,132.73H196.5l-2.31,7.64h-4.35l9.78-30.74h4.44l9.78,30.74h-4.36Zm-1.11-3.67-4.22-14-4.23,14Z" transform="translate(-21.28 -25)"/><path class="cls-3" d="M47.42,165.61c0,6.67-3.72,10.92-10.5,10.92h-8v18.41H21.28V152.45H39Zm-12.86-6.49H28.89V169.8h7.26c2.13,0,3.36-1.18,3.36-3.13Z" transform="translate(-21.28 -25)"/><polygon class="cls-3" points="39.54 152 39.54 163.21 60.25 163.21 60.25 169.94 31.93 169.94 31.93 127.45 53.29 127.45 53.29 134.12 39.54 134.12 39.54 145.33 68.16 145.33 68.16 152 39.54 152"/><polygon class="cls-3" points="72.59 163.21 79.55 163.21 71 127.45 86.63 127.45 86.63 134.12 79.85 134.12 88.46 169.94 72.59 169.94 72.59 163.21"/><path class="cls-3" d="M119.72,192.75c2.77-4.48,3.54-5.9,3.54-9.08,0-2.84-1.3-5.37-3.72-9.45-2.6-4.25-3.9-6.67-4-10.56,0-3.6,1.94-7.79,5.19-11.75l7,2.13c-3.24,4.49-4.19,6.26-4.19,9.62,0,2.89,1.3,5.31,3.72,9.5.89,1.48,1.59,2.78,2.13,3.78a13.91,13.91,0,0,1,1.88,6.73c0,4-1.65,8-4.42,11.8Z" transform="translate(-21.28 -25)"/><path class="cls-3" d="M137.71,161c0-6,3.07-8.55,10-8.55h16.88c6.9,0,10,2.59,10,8.55v25.38c0,6-3.07,8.56-10,8.56H147.69c-6.91,0-10-2.66-10-8.56Zm26.68,27.21c1.65,0,2.6-.83,2.6-2.42v-24.2a2.31,2.31,0,0,0-2.6-2.48H147.86a2.26,2.26,0,0,0-2.53,2.48v24.2a2.21,2.21,0,0,0,2.53,2.42Z" transform="translate(-21.28 -25)"/><path class="cls-3" d="M205.11,194.94l-2.72-9.38-16.22,9.38h-6.38v-7.08l11.33-35.41h8.62l7.14,22.48,3.66-2.12,2.3,6.73L209,181.72l4.19,13.22Zm-4.72-16.23-5-16.76-6.9,23.66Z" transform="translate(-21.28 -25)"/><path class="cls-3" d="M343.46,164.45a79.08,79.08,0,0,1-13.82,18.4c-15.72,15.72-34.88,23.77-57.49,23.77-18.24,0-34.52-5.24-48.36-15.54l-11.21,15.36C229.69,218.83,249.69,225,272.15,225c28,0,51.35-9.58,70.89-28.74a99.85,99.85,0,0,0,21.79-31.81ZM343,54.12C323.5,34.58,300.14,25,272.15,25s-52.1,9.58-71.64,29.12l-.14.14.18.22L213,68.54c.43-.48.89-.93,1.35-1.39,15.7-15.72,35.24-23.76,57.84-23.76s41.77,8,57.49,23.76a79.18,79.18,0,0,1,14.24,19.2h21.27A97.1,97.1,0,0,0,343,54.12" transform="translate(-21.28 -25)"/><path class="cls-3" d="M50.21,78.85V97.4h-4V78.85c0-5.38-3-8.53-8.22-8.53-5.8,0-9.79,3.57-9.79,11.25V97.4h-4V67.18h4v4.71a11.13,11.13,0,0,1,10.15-5.44c7.32,0,11.85,4.84,11.85,12.4" transform="translate(-21.28 -25)"/><path class="cls-3" d="M79.23,67.18h4V97.4h-4V92.69q-3.35,5.44-10.15,5.44c-7.32,0-11.85-4.84-11.85-12.39V67.18h4V85.74c0,5.38,3,8.52,8.22,8.52,5.8,0,9.79-3.57,9.79-11.24ZM76.75,55.09,71,63H67.08l4.84-7.86Z" transform="translate(-21.28 -25)"/><path class="cls-3" d="M94.41,93.6a15.54,15.54,0,0,1-4.53-11.31,15.59,15.59,0,0,1,15.89-15.84c6,0,11.07,3.09,13.24,7.92l-3.26,1.88c-1.63-3.63-5.44-5.93-10-5.93a11.36,11.36,0,0,0-8.46,3.51,11.53,11.53,0,0,0-3.44,8.46,11.77,11.77,0,0,0,3.44,8.53,11.57,11.57,0,0,0,8.46,3.44A11.36,11.36,0,0,0,116,88.34l3.33,1.93a15,15,0,0,1-13.55,7.86A15.45,15.45,0,0,1,94.41,93.6" transform="translate(-21.28 -25)"/><rect class="cls-3" x="103.78" y="28.27" width="3.99" height="44.13"/><path class="cls-3" d="M162.3,71.23a16.35,16.35,0,0,1,4.17,11.18c0,.43-.06,1.09-.12,1.88H139.81c.79,6.1,5.56,10,12,10,4.6,0,8-2.05,9.73-5.14l3.51,2.06c-2.66,4.29-7.44,6.95-13.3,6.95a15.74,15.74,0,0,1-11.61-4.47,15.45,15.45,0,0,1-4.47-11.37A15.45,15.45,0,0,1,140.11,71a15.19,15.19,0,0,1,11.37-4.54,13.51,13.51,0,0,1,10.82,4.78m-22.49,9.19h22.55A11.25,11.25,0,0,0,158.67,73a10.81,10.81,0,0,0-7.19-2.66,11.29,11.29,0,0,0-11.67,10.1" transform="translate(-21.28 -25)"/><path class="cls-3" d="M186.91,98.13A15.62,15.62,0,0,1,175.6,93.6,15.36,15.36,0,0,1,171,82.29a15.09,15.09,0,0,1,4.59-11.24,15.4,15.4,0,0,1,11.31-4.6,15.81,15.81,0,0,1,15.9,15.84,15.69,15.69,0,0,1-15.9,15.84m0-3.87a11.57,11.57,0,0,0,8.46-3.44,11.77,11.77,0,0,0,3.45-8.53,11.54,11.54,0,0,0-3.45-8.46,12,12,0,0,0-16.93,0A11.57,11.57,0,0,0,175,82.29a11.81,11.81,0,0,0,3.44,8.53,11.57,11.57,0,0,0,8.47,3.44" transform="translate(-21.28 -25)"/><polygon class="cls-3" points="25.91 84.63 25.91 115.37 21.77 115.37 21.77 92.95 14.38 115.37 11.61 115.37 4.22 92.95 4.22 115.37 0.08 115.37 0.08 84.63 5.38 84.63 13.02 107.6 20.62 84.63 25.91 84.63"/><path class="cls-3" d="M53.77,109.63h4.1v19.9c0,4.27,2.34,7.3,6.78,7.3s6.75-3,6.75-7.3v-19.9h4.14v20.24c0,6.28-3.93,10.84-10.89,10.84s-10.88-4.56-10.88-10.84Z" transform="translate(-21.28 -25)"/><path class="cls-3" d="M84,130.08c1.5,4.66,4,6.79,8,6.79,3.16,0,5.38-1.71,5.38-4.27a3.71,3.71,0,0,0-.86-2.39c-1.15-1.41-2.52-2.09-5.55-3.63a38.19,38.19,0,0,1-4.48-2.52,8.82,8.82,0,0,1-4.14-7.43c0-4.4,3.46-7.34,8.49-7.34,4.57,0,7.69,2.22,9.36,6.7l-3.85,1.33c-1-2.82-2.86-4.23-5.46-4.23s-4.23,1.45-4.23,3.63a4.15,4.15,0,0,0,.85,2.56c1.2,1.41,2.65,2.18,5.68,3.67a50.21,50.21,0,0,1,4.4,2.44,8.38,8.38,0,0,1,4.06,7.13c0,5-3.85,8.2-9.78,8.2s-9.65-3.12-11.66-9.4Z" transform="translate(-21.28 -25)"/><polygon class="cls-3" points="104.26 111.7 104.26 115.37 85.77 115.37 85.77 84.63 103.58 84.63 103.58 88.3 89.91 88.3 89.91 99.57 101.57 99.57 101.57 103.25 89.91 103.25 89.91 111.7 104.26 111.7"/><path class="cls-3" d="M130.45,109.63h4.1v19.9c0,4.27,2.35,7.3,6.79,7.3s6.74-3,6.74-7.3v-19.9h4.15v20.24c0,6.28-3.93,10.84-10.89,10.84s-10.89-4.56-10.89-10.84Z" transform="translate(-21.28 -25)"/><path class="cls-3" d="M175.15,140.37H168.7V109.63h6.45c8.16,0,13.66,6.23,13.66,15.37s-5.5,15.37-13.66,15.37m-.3-27.07h-2v23.4h2c5.81,0,9.65-4.7,9.65-11.7s-3.84-11.7-9.65-11.7" transform="translate(-21.28 -25)"/><path class="cls-3" d="M207.17,132.73H196.5l-2.31,7.64h-4.35l9.78-30.74h4.44l9.78,30.74h-4.36Zm-1.11-3.67-4.22-14-4.23,14Z" transform="translate(-21.28 -25)"/><path class="cls-3" d="M47.42,165.61c0,6.67-3.72,10.92-10.5,10.92h-8v18.41H21.28V152.45H39Zm-12.86-6.49H28.89V169.8h7.26c2.13,0,3.36-1.18,3.36-3.13Z" transform="translate(-21.28 -25)"/><polygon class="cls-3" points="39.54 152 39.54 163.21 60.25 163.21 60.25 169.94 31.93 169.94 31.93 127.45 53.29 127.45 53.29 134.12 39.54 134.12 39.54 145.33 68.16 145.33 68.16 152 39.54 152"/><polygon class="cls-3" points="72.59 163.21 79.55 163.21 71 127.45 86.63 127.45 86.63 134.12 79.85 134.12 88.46 169.94 72.59 169.94 72.59 163.21"/><path class="cls-3" d="M119.72,192.75c2.77-4.48,3.54-5.9,3.54-9.08,0-2.84-1.3-5.37-3.72-9.45-2.6-4.25-3.9-6.67-4-10.56,0-3.6,1.94-7.79,5.19-11.75l7,2.13c-3.24,4.49-4.19,6.26-4.19,9.62,0,2.89,1.3,5.31,3.72,9.5.89,1.48,1.59,2.78,2.13,3.78a13.91,13.91,0,0,1,1.88,6.73c0,4-1.65,8-4.42,11.8Z" transform="translate(-21.28 -25)"/><path class="cls-3" d="M137.71,161c0-6,3.07-8.55,10-8.55h16.88c6.9,0,10,2.59,10,8.55v25.38c0,6-3.07,8.56-10,8.56H147.69c-6.91,0-10-2.66-10-8.56Zm26.68,27.21c1.65,0,2.6-.83,2.6-2.42v-24.2a2.31,2.31,0,0,0-2.6-2.48H147.86a2.26,2.26,0,0,0-2.53,2.48v24.2a2.21,2.21,0,0,0,2.53,2.42Z" transform="translate(-21.28 -25)"/><path class="cls-3" d="M205.11,194.94l-2.72-9.38-16.22,9.38h-6.38v-7.08l11.33-35.41h8.62l7.14,22.48,3.66-2.12,2.3,6.73L209,181.72l4.19,13.22Zm-4.72-16.23-5-16.76-6.9,23.66Z" transform="translate(-21.28 -25)"/></g></g></g></g></svg>