<svg xmlns="http://www.w3.org/2000/svg" viewBox="0 0 154.67 154.71"><defs><style>.cls-1{fill:#fff;}</style></defs><g id="Camada_2" data-name="Camada 2"><g id="Layer_1" data-name="Layer 1"><path class="cls-1" d="M154.67,9.06V145.64c-1,3-2.33,5.67-5.14,7.3-1.23.71-2.61,1.18-3.92,1.77H9.06a9.85,9.85,0,0,0-1-.37A11.18,11.18,0,0,1,0,143.57Q0,77.35,0,11.11A11,11,0,0,1,11.11,0H143.54a11,11,0,0,1,10.6,7.69C154.29,8.16,154.49,8.61,154.67,9.06Zm-119,96.24c.06.11.07.23.15.28.37.26.74.51,1.13.73A50.1,50.1,0,0,0,64.11,113c9-.31,17.45-2.46,25-7.43,15.62-10.34,23.15-25.16,23.58-43.74a2.78,2.78,0,0,1,1.16-2.52,32.17,32.17,0,0,0,7.45-8c-1.21.44-2.18.82-3.16,1.13s-2.12.62-3.2.86-2,.34-2.92.51c4.23-3.84,6.36-6.71,6.67-9-3.08,1.09-6.28,2.2-9.47,3.35a2,2,0,0,1-2.27-.55A17.7,17.7,0,0,0,78.43,54a19.56,19.56,0,0,0-.86,10.64c-14.86-1-27-7.25-36.67-18.6-4.24,9.39-2.4,17.13,5.24,23.59l-.2.36-7.48-2.07c.61,8.92,5.3,14.55,13.79,17.2l-.09.37H44.69c3,7.58,8.39,11.58,16.58,12.34A36.3,36.3,0,0,1,35.69,105.3Z"/></g></g></svg>