<svg xmlns="http://www.w3.org/2000/svg" viewBox="0 0 154.67 154.71"><defs><style>.cls-1{fill:#fff;}</style></defs><g id="Camada_2" data-name="Camada 2"><g id="Layer_1" data-name="Layer 1"><path class="cls-1" d="M154.67,9.06V145.64c-1,3-2.33,5.67-5.14,7.3-1.23.71-2.61,1.18-3.92,1.77H9.06a9.85,9.85,0,0,0-1-.37A11.18,11.18,0,0,1,0,143.57Q0,77.35,0,11.11A11,11,0,0,1,11.11,0H143.54a11,11,0,0,1,10.6,7.69C154.29,8.16,154.49,8.61,154.67,9.06ZM77.07,43.32v.49c-5.78,0-11.57-.15-17.35,0s-11.55.67-17.3,1.17c-6.29.56-10.58,4.21-11.58,10.41a162.11,162.11,0,0,0-1.61,16.48,126.13,126.13,0,0,0,1.3,26.33c.78,5.18,3.39,9,8.55,10.64A27.6,27.6,0,0,0,45.59,110c7.23.43,14.46.83,21.7,1a354.54,354.54,0,0,0,44.92-1.31c6.43-.64,10.65-4.13,11.65-10.48a166.35,166.35,0,0,0,1.66-17.84,121.43,121.43,0,0,0-1.35-24.83c-.91-5.67-3.81-9.71-9.64-11a47.63,47.63,0,0,0-8-1.08C96.68,44,86.87,43.69,77.07,43.32Z"/><path class="cls-1" d="M92.94,77.35,67.77,91.85v-29Z"/></g></g></svg>